<svg width="21" height="20" viewBox="0 0 21 20" fill="none" xmlns="http://www.w3.org/2000/svg">
<path fill-rule="evenodd" clip-rule="evenodd" d="M7.16683 0.833374H13.8335C17.0552 0.833374 19.6668 3.44505 19.6668 6.66671V13.3334C19.6668 16.555 17.0552 19.1667 13.8335 19.1667H7.16683C3.94517 19.1667 1.3335 16.555 1.3335 13.3334V6.66671C1.3335 3.44505 3.94517 0.833374 7.16683 0.833374ZM7.16683 2.50004C4.86564 2.50004 3.00016 4.36552 3.00016 6.66671V13.3334C3.00016 15.6346 4.86564 17.5 7.16683 17.5H13.8335C16.1347 17.5 18.0002 15.6346 18.0002 13.3334V6.66671C18.0002 4.36552 16.1347 2.50004 13.8335 2.50004H7.16683ZM7.74317 9.39872L9.63576 11.267L13.1816 6.96966C13.4746 6.61467 13.9998 6.56435 14.3548 6.85727C14.7098 7.15019 14.7601 7.67542 14.4672 8.03041L10.3415 13.0304C10.0299 13.408 9.46162 13.437 9.11327 13.0931L6.57231 10.5848C6.24478 10.2615 6.24136 9.73388 6.56468 9.40635C6.88801 9.07881 7.41563 9.07539 7.74317 9.39872Z" fill="#B5B5BE"/>
</svg>
