<svg width="18" height="18" viewBox="0 0 18 18" fill="none" xmlns="http://www.w3.org/2000/svg">
<path fill-rule="evenodd" clip-rule="evenodd" d="M17.9999 9.03561C18 9.02375 18 9.01188 18 9C18 4.02944 13.9706 0 9 0C4.02944 0 0 4.02944 0 9C0 13.9706 4.02944 18 9 18C13.9468 18 17.9615 14.009 17.9997 9.0712C17.9999 9.06339 18 9.05556 18 9.04771C18 9.04367 18 9.03964 17.9999 9.03561ZM15.9357 8.04725C15.5155 4.95925 13.0814 2.51165 10 2.07089V8.04593L15.9357 8.04725ZM8 2.07089V9.0457C8 9.5979 8.44758 10.0456 8.99978 10.0457L15.9222 10.0472C15.4168 13.4165 12.5101 16 9 16C5.13401 16 2 12.866 2 9C2 5.47353 4.60771 2.55612 8 2.07089Z" fill="#FF9700"/>
</svg>
