<svg width="666" height="91" viewBox="0 0 666 91" fill="none" xmlns="http://www.w3.org/2000/svg">
<rect x="72" y="48" width="593" height="42" rx="8" fill="white" stroke="#E2E2EA"/>
<path d="M92.8184 68.709V69.3379C92.8184 70.0853 92.7249 70.7552 92.5381 71.3477C92.3512 71.9401 92.0824 72.4437 91.7314 72.8584C91.3805 73.2731 90.959 73.5898 90.4668 73.8086C89.9792 74.0273 89.4323 74.1367 88.8262 74.1367C88.2383 74.1367 87.6982 74.0273 87.2061 73.8086C86.7184 73.5898 86.2946 73.2731 85.9346 72.8584C85.5791 72.4437 85.3034 71.9401 85.1074 71.3477C84.9115 70.7552 84.8135 70.0853 84.8135 69.3379V68.709C84.8135 67.9616 84.9092 67.2939 85.1006 66.7061C85.2965 66.1136 85.5723 65.61 85.9277 65.1953C86.2832 64.776 86.7048 64.457 87.1924 64.2383C87.6846 64.0195 88.2246 63.9102 88.8125 63.9102C89.4186 63.9102 89.9655 64.0195 90.4531 64.2383C90.9453 64.457 91.3669 64.776 91.7178 65.1953C92.0732 65.61 92.3444 66.1136 92.5312 66.7061C92.7227 67.2939 92.8184 67.9616 92.8184 68.709ZM91.5127 69.3379V68.6953C91.5127 68.1029 91.4512 67.5788 91.3281 67.123C91.2096 66.6673 91.0342 66.2845 90.8018 65.9746C90.5693 65.6647 90.2845 65.43 89.9473 65.2705C89.6146 65.111 89.2363 65.0312 88.8125 65.0312C88.4023 65.0312 88.0309 65.111 87.6982 65.2705C87.3701 65.43 87.0876 65.6647 86.8506 65.9746C86.6182 66.2845 86.4382 66.6673 86.3105 67.123C86.1829 67.5788 86.1191 68.1029 86.1191 68.6953V69.3379C86.1191 69.9349 86.1829 70.4635 86.3105 70.9238C86.4382 71.3796 86.6204 71.7646 86.8574 72.0791C87.099 72.389 87.3838 72.6237 87.7119 72.7832C88.0446 72.9427 88.416 73.0225 88.8262 73.0225C89.2546 73.0225 89.6351 72.9427 89.9678 72.7832C90.3005 72.6237 90.5807 72.389 90.8086 72.0791C91.041 71.7646 91.2165 71.3796 91.335 70.9238C91.4535 70.4635 91.5127 69.9349 91.5127 69.3379ZM97.65 73.0977C97.9508 73.0977 98.2288 73.0361 98.484 72.9131C98.7392 72.79 98.9488 72.6214 99.1129 72.4072C99.277 72.1885 99.3704 71.9401 99.3932 71.6621H100.596C100.574 72.0996 100.425 72.5075 100.152 72.8857C99.8831 73.2594 99.5299 73.5625 99.0924 73.7949C98.6549 74.0228 98.1741 74.1367 97.65 74.1367C97.094 74.1367 96.6087 74.0387 96.1939 73.8428C95.7838 73.6468 95.442 73.3779 95.1686 73.0361C94.8997 72.6943 94.6969 72.3024 94.5602 71.8604C94.428 71.4137 94.3619 70.9421 94.3619 70.4453V70.1582C94.3619 69.6615 94.428 69.1921 94.5602 68.75C94.6969 68.3034 94.8997 67.9092 95.1686 67.5674C95.442 67.2256 95.7838 66.9567 96.1939 66.7607C96.6087 66.5648 97.094 66.4668 97.65 66.4668C98.2288 66.4668 98.7346 66.5853 99.1676 66.8223C99.6005 67.0547 99.94 67.3737 100.186 67.7793C100.437 68.1803 100.574 68.6361 100.596 69.1465H99.3932C99.3704 68.8411 99.2838 68.5654 99.1334 68.3193C98.9876 68.0732 98.787 67.8773 98.5318 67.7314C98.2812 67.5811 97.9872 67.5059 97.65 67.5059C97.2626 67.5059 96.9368 67.5833 96.6725 67.7383C96.4127 67.8887 96.2053 68.0938 96.0504 68.3535C95.9 68.6087 95.7906 68.8936 95.7223 69.208C95.6585 69.5179 95.6266 69.8346 95.6266 70.1582V70.4453C95.6266 70.7689 95.6585 71.0879 95.7223 71.4023C95.7861 71.7168 95.8932 72.0016 96.0436 72.2568C96.1985 72.512 96.4059 72.7171 96.6656 72.8721C96.9299 73.0225 97.2581 73.0977 97.65 73.0977ZM105.12 66.6035V74H103.849V66.6035H105.12ZM107.602 66.6035V67.6289H101.415V66.6035H107.602ZM113.185 72.7354V68.9277C113.185 68.6361 113.126 68.3831 113.008 68.1689C112.894 67.9502 112.721 67.7816 112.488 67.6631C112.256 67.5446 111.969 67.4854 111.627 67.4854C111.308 67.4854 111.027 67.54 110.786 67.6494C110.549 67.7588 110.362 67.9023 110.225 68.0801C110.093 68.2578 110.027 68.4492 110.027 68.6543H108.763C108.763 68.39 108.831 68.1279 108.968 67.8682C109.104 67.6084 109.3 67.3737 109.555 67.1641C109.815 66.9499 110.125 66.7812 110.485 66.6582C110.85 66.5306 111.255 66.4668 111.702 66.4668C112.24 66.4668 112.714 66.5579 113.124 66.7402C113.539 66.9225 113.862 67.1982 114.095 67.5674C114.332 67.932 114.45 68.39 114.45 68.9414V72.3867C114.45 72.6328 114.471 72.8949 114.512 73.1729C114.557 73.4508 114.623 73.6901 114.71 73.8906V74H113.39C113.327 73.8542 113.276 73.6605 113.24 73.4189C113.204 73.1729 113.185 72.945 113.185 72.7354ZM113.404 69.5156L113.418 70.4043H112.139C111.779 70.4043 111.458 70.4339 111.176 70.4932C110.893 70.5479 110.656 70.6322 110.465 70.7461C110.273 70.86 110.127 71.0036 110.027 71.1768C109.927 71.3454 109.877 71.5436 109.877 71.7715C109.877 72.0039 109.929 72.2158 110.034 72.4072C110.139 72.5986 110.296 72.7513 110.506 72.8652C110.72 72.9746 110.982 73.0293 111.292 73.0293C111.679 73.0293 112.021 72.9473 112.317 72.7832C112.613 72.6191 112.848 72.4186 113.021 72.1816C113.199 71.9447 113.295 71.7145 113.308 71.4912L113.848 72.0996C113.817 72.291 113.73 72.5029 113.589 72.7354C113.447 72.9678 113.258 73.1911 113.021 73.4053C112.789 73.6149 112.511 73.7904 112.187 73.9316C111.868 74.0684 111.508 74.1367 111.107 74.1367C110.606 74.1367 110.166 74.0387 109.788 73.8428C109.414 73.6468 109.123 73.3848 108.913 73.0566C108.708 72.724 108.605 72.3525 108.605 71.9424C108.605 71.5459 108.683 71.1973 108.838 70.8965C108.993 70.5911 109.216 70.3382 109.508 70.1377C109.799 69.9326 110.15 69.7777 110.56 69.6729C110.971 69.568 111.429 69.5156 111.934 69.5156H113.404ZM119.999 70.7461H117.573L117.559 69.7344H119.541C119.933 69.7344 120.259 69.6956 120.519 69.6182C120.783 69.5407 120.982 69.4245 121.114 69.2695C121.246 69.1146 121.312 68.9232 121.312 68.6953C121.312 68.5176 121.273 68.3626 121.196 68.2305C121.123 68.0938 121.011 67.9821 120.861 67.8955C120.71 67.8044 120.524 67.7383 120.3 67.6973C120.081 67.6517 119.824 67.6289 119.528 67.6289H117.908V74H116.643V66.6035H119.528C119.997 66.6035 120.419 66.6445 120.792 66.7266C121.171 66.8086 121.492 66.9339 121.756 67.1025C122.025 67.2666 122.23 67.4762 122.371 67.7314C122.513 67.9867 122.583 68.2874 122.583 68.6338C122.583 68.8571 122.538 69.069 122.447 69.2695C122.356 69.4701 122.221 69.6478 122.043 69.8027C121.866 69.9577 121.647 70.0853 121.387 70.1855C121.127 70.2812 120.829 70.3428 120.492 70.3701L119.999 70.7461ZM119.999 74H117.115L117.744 72.9746H119.999C120.35 72.9746 120.642 72.9313 120.874 72.8447C121.107 72.7536 121.28 72.626 121.394 72.4619C121.512 72.2933 121.572 72.0928 121.572 71.8604C121.572 71.6279 121.512 71.4297 121.394 71.2656C121.28 71.097 121.107 70.9694 120.874 70.8828C120.642 70.7917 120.35 70.7461 119.999 70.7461H118.079L118.092 69.7344H120.492L120.95 70.1172C121.355 70.1491 121.699 70.2493 121.982 70.418C122.264 70.5866 122.479 70.8008 122.624 71.0605C122.77 71.3158 122.843 71.5938 122.843 71.8945C122.843 72.2409 122.777 72.5462 122.645 72.8105C122.517 73.0749 122.33 73.2959 122.084 73.4736C121.838 73.6468 121.54 73.779 121.189 73.8701C120.838 73.9567 120.441 74 119.999 74ZM125.665 69.1465H127.887C128.484 69.1465 128.987 69.2513 129.397 69.4609C129.808 69.666 130.118 69.9508 130.327 70.3154C130.541 70.6755 130.648 71.0856 130.648 71.5459C130.648 71.8877 130.589 72.209 130.471 72.5098C130.352 72.806 130.174 73.0658 129.938 73.2891C129.705 73.5124 129.416 73.6878 129.069 73.8154C128.728 73.9385 128.333 74 127.887 74H124.742V66.6035H126.007V72.9609H127.887C128.251 72.9609 128.543 72.8949 128.762 72.7627C128.98 72.6305 129.138 72.4596 129.233 72.25C129.329 72.0404 129.377 71.8216 129.377 71.5938C129.377 71.3704 129.329 71.1517 129.233 70.9375C129.138 70.7233 128.98 70.5456 128.762 70.4043C128.543 70.2585 128.251 70.1855 127.887 70.1855H125.665V69.1465ZM134.851 66.6035V74H133.58V66.6035H134.851ZM137.333 66.6035V67.6289H131.146V66.6035H137.333ZM141.187 74.1367C140.672 74.1367 140.205 74.0501 139.785 73.877C139.371 73.6992 139.013 73.4508 138.712 73.1318C138.416 72.8128 138.188 72.4346 138.029 71.9971C137.869 71.5596 137.789 71.0811 137.789 70.5615V70.2744C137.789 69.6729 137.878 69.1374 138.056 68.668C138.234 68.194 138.475 67.793 138.78 67.4648C139.086 67.1367 139.432 66.8883 139.82 66.7197C140.207 66.5511 140.608 66.4668 141.023 66.4668C141.551 66.4668 142.007 66.5579 142.39 66.7402C142.777 66.9225 143.094 67.1777 143.34 67.5059C143.586 67.8294 143.768 68.2122 143.887 68.6543C144.005 69.0918 144.065 69.5703 144.065 70.0898V70.6572H138.541V69.625H142.8V69.5293C142.782 69.2012 142.713 68.8822 142.595 68.5723C142.481 68.2624 142.299 68.0072 142.048 67.8066C141.797 67.6061 141.456 67.5059 141.023 67.5059C140.736 67.5059 140.471 67.5674 140.23 67.6904C139.988 67.8089 139.781 67.9867 139.608 68.2236C139.434 68.4606 139.3 68.75 139.204 69.0918C139.109 69.4336 139.061 69.8278 139.061 70.2744V70.5615C139.061 70.9124 139.109 71.2428 139.204 71.5527C139.305 71.8581 139.448 72.127 139.635 72.3594C139.826 72.5918 140.057 72.7741 140.325 72.9062C140.599 73.0384 140.909 73.1045 141.255 73.1045C141.702 73.1045 142.08 73.0133 142.39 72.8311C142.7 72.6488 142.971 72.4049 143.203 72.0996L143.969 72.708C143.809 72.9495 143.607 73.1797 143.361 73.3984C143.114 73.6172 142.811 73.7949 142.451 73.9316C142.096 74.0684 141.674 74.1367 141.187 74.1367ZM150.563 66.6035V74H149.298V66.6035H150.563ZM155.416 66.6035L151.91 70.8418H150.139L149.948 69.7344H151.397L153.878 66.6035H155.416ZM154.056 74L151.335 70.6504L152.149 69.7344L155.662 74H154.056ZM156.365 70.3838V70.2266C156.365 69.6934 156.443 69.1989 156.598 68.7432C156.753 68.2829 156.976 67.8841 157.268 67.5469C157.559 67.2051 157.912 66.9408 158.327 66.7539C158.742 66.5625 159.207 66.4668 159.722 66.4668C160.241 66.4668 160.708 66.5625 161.123 66.7539C161.542 66.9408 161.898 67.2051 162.189 67.5469C162.486 67.8841 162.711 68.2829 162.866 68.7432C163.021 69.1989 163.099 69.6934 163.099 70.2266V70.3838C163.099 70.917 163.021 71.4115 162.866 71.8672C162.711 72.3229 162.486 72.7217 162.189 73.0635C161.898 73.4007 161.545 73.665 161.13 73.8564C160.72 74.0433 160.255 74.1367 159.735 74.1367C159.216 74.1367 158.749 74.0433 158.334 73.8564C157.919 73.665 157.564 73.4007 157.268 73.0635C156.976 72.7217 156.753 72.3229 156.598 71.8672C156.443 71.4115 156.365 70.917 156.365 70.3838ZM157.63 70.2266V70.3838C157.63 70.7529 157.673 71.1016 157.76 71.4297C157.846 71.7533 157.976 72.0404 158.149 72.291C158.327 72.5417 158.548 72.7399 158.812 72.8857C159.077 73.027 159.384 73.0977 159.735 73.0977C160.082 73.0977 160.385 73.027 160.645 72.8857C160.909 72.7399 161.128 72.5417 161.301 72.291C161.474 72.0404 161.604 71.7533 161.69 71.4297C161.782 71.1016 161.827 70.7529 161.827 70.3838V70.2266C161.827 69.862 161.782 69.5179 161.69 69.1943C161.604 68.8662 161.472 68.5768 161.294 68.3262C161.121 68.071 160.902 67.8704 160.638 67.7246C160.378 67.5788 160.073 67.5059 159.722 67.5059C159.375 67.5059 159.07 67.5788 158.806 67.7246C158.546 67.8704 158.327 68.071 158.149 68.3262C157.976 68.5768 157.846 68.8662 157.76 69.1943C157.673 69.5179 157.63 69.862 157.63 70.2266ZM169.024 72.3184L171.54 66.6035H172.756L169.462 74H168.587L165.305 66.6035H166.522L169.024 72.3184ZM166.153 66.6035V74H164.888V66.6035H166.153ZM171.854 74V66.6035H173.126V74H171.854ZM179.502 72.3184L182.018 66.6035H183.235L179.94 74H179.065L175.783 66.6035H177L179.502 72.3184ZM176.631 66.6035V74H175.366V66.6035H176.631ZM182.332 74V66.6035H183.604V74H182.332ZM188.798 74.1367C188.283 74.1367 187.816 74.0501 187.396 73.877C186.982 73.6992 186.624 73.4508 186.323 73.1318C186.027 72.8128 185.799 72.4346 185.639 71.9971C185.48 71.5596 185.4 71.0811 185.4 70.5615V70.2744C185.4 69.6729 185.489 69.1374 185.667 68.668C185.845 68.194 186.086 67.793 186.391 67.4648C186.697 67.1367 187.043 66.8883 187.43 66.7197C187.818 66.5511 188.219 66.4668 188.634 66.4668C189.162 66.4668 189.618 66.5579 190.001 66.7402C190.388 66.9225 190.705 67.1777 190.951 67.5059C191.197 67.8294 191.379 68.2122 191.498 68.6543C191.616 69.0918 191.676 69.5703 191.676 70.0898V70.6572H186.152V69.625H190.411V69.5293C190.393 69.2012 190.324 68.8822 190.206 68.5723C190.092 68.2624 189.91 68.0072 189.659 67.8066C189.408 67.6061 189.067 67.5059 188.634 67.5059C188.346 67.5059 188.082 67.5674 187.841 67.6904C187.599 67.8089 187.392 67.9867 187.219 68.2236C187.045 68.4606 186.911 68.75 186.815 69.0918C186.72 69.4336 186.672 69.8278 186.672 70.2744V70.5615C186.672 70.9124 186.72 71.2428 186.815 71.5527C186.915 71.8581 187.059 72.127 187.246 72.3594C187.437 72.5918 187.667 72.7741 187.936 72.9062C188.21 73.0384 188.52 73.1045 188.866 73.1045C189.313 73.1045 189.691 73.0133 190.001 72.8311C190.311 72.6488 190.582 72.4049 190.814 72.0996L191.58 72.708C191.42 72.9495 191.218 73.1797 190.971 73.3984C190.725 73.6172 190.422 73.7949 190.062 73.9316C189.707 74.0684 189.285 74.1367 188.798 74.1367ZM198.257 69.8096V70.835H194.347V69.8096H198.257ZM194.614 66.6035V74H193.349V66.6035H194.614ZM199.283 66.6035V74H198.011V66.6035H199.283ZM204.422 66.6035V74H203.15V66.6035H204.422ZM206.903 66.6035V67.6289H200.717V66.6035H206.903ZM212.487 72.7354V68.9277C212.487 68.6361 212.428 68.3831 212.309 68.1689C212.195 67.9502 212.022 67.7816 211.79 67.6631C211.557 67.5446 211.27 67.4854 210.928 67.4854C210.609 67.4854 210.329 67.54 210.088 67.6494C209.851 67.7588 209.664 67.9023 209.527 68.0801C209.395 68.2578 209.329 68.4492 209.329 68.6543H208.064C208.064 68.39 208.132 68.1279 208.269 67.8682C208.406 67.6084 208.602 67.3737 208.857 67.1641C209.117 66.9499 209.427 66.7812 209.787 66.6582C210.151 66.5306 210.557 66.4668 211.004 66.4668C211.541 66.4668 212.015 66.5579 212.425 66.7402C212.84 66.9225 213.164 67.1982 213.396 67.5674C213.633 67.932 213.752 68.39 213.752 68.9414V72.3867C213.752 72.6328 213.772 72.8949 213.813 73.1729C213.859 73.4508 213.925 73.6901 214.011 73.8906V74H212.692C212.628 73.8542 212.578 73.6605 212.542 73.4189C212.505 73.1729 212.487 72.945 212.487 72.7354ZM212.706 69.5156L212.719 70.4043H211.441C211.081 70.4043 210.76 70.4339 210.477 70.4932C210.195 70.5479 209.958 70.6322 209.766 70.7461C209.575 70.86 209.429 71.0036 209.329 71.1768C209.228 71.3454 209.178 71.5436 209.178 71.7715C209.178 72.0039 209.231 72.2158 209.336 72.4072C209.44 72.5986 209.598 72.7513 209.807 72.8652C210.021 72.9746 210.283 73.0293 210.593 73.0293C210.981 73.0293 211.323 72.9473 211.619 72.7832C211.915 72.6191 212.15 72.4186 212.323 72.1816C212.501 71.9447 212.596 71.7145 212.61 71.4912L213.15 72.0996C213.118 72.291 213.032 72.5029 212.89 72.7354C212.749 72.9678 212.56 73.1911 212.323 73.4053C212.09 73.6149 211.812 73.7904 211.489 73.9316C211.17 74.0684 210.81 74.1367 210.409 74.1367C209.907 74.1367 209.468 74.0387 209.089 73.8428C208.716 73.6468 208.424 73.3848 208.214 73.0566C208.009 72.724 207.907 72.3525 207.907 71.9424C207.907 71.5459 207.984 71.1973 208.139 70.8965C208.294 70.5911 208.518 70.3382 208.809 70.1377C209.101 69.9326 209.452 69.7777 209.862 69.6729C210.272 69.568 210.73 69.5156 211.236 69.5156H212.706ZM217.093 68.0254V76.8438H215.821V66.6035H216.984L217.093 68.0254ZM222.076 70.2402V70.3838C222.076 70.9215 222.013 71.4206 221.885 71.8809C221.757 72.3366 221.571 72.7331 221.324 73.0703C221.083 73.4076 220.784 73.6696 220.429 73.8564C220.073 74.0433 219.666 74.1367 219.205 74.1367C218.736 74.1367 218.321 74.0592 217.961 73.9043C217.601 73.7493 217.296 73.5238 217.045 73.2275C216.794 72.9313 216.594 72.5758 216.444 72.1611C216.298 71.7464 216.197 71.2793 216.143 70.7598V69.9941C216.197 69.4473 216.3 68.9574 216.45 68.5244C216.601 68.0915 216.799 67.7223 217.045 67.417C217.296 67.1071 217.599 66.8724 217.954 66.7129C218.31 66.5488 218.72 66.4668 219.185 66.4668C219.65 66.4668 220.062 66.5579 220.422 66.7402C220.782 66.918 221.085 67.1732 221.331 67.5059C221.577 67.8385 221.762 68.2373 221.885 68.7021C222.013 69.1624 222.076 69.6751 222.076 70.2402ZM220.805 70.3838V70.2402C220.805 69.8711 220.766 69.5247 220.689 69.2012C220.611 68.873 220.49 68.5859 220.326 68.3398C220.167 68.0892 219.962 67.8932 219.711 67.752C219.46 67.6061 219.162 67.5332 218.816 67.5332C218.497 67.5332 218.219 67.5879 217.982 67.6973C217.749 67.8066 217.551 67.9548 217.387 68.1416C217.223 68.3239 217.088 68.5335 216.984 68.7705C216.883 69.0029 216.808 69.2445 216.758 69.4951V71.2656C216.849 71.5846 216.977 71.8854 217.141 72.168C217.305 72.446 217.524 72.6715 217.797 72.8447C218.071 73.0133 218.415 73.0977 218.829 73.0977C219.171 73.0977 219.465 73.027 219.711 72.8857C219.962 72.7399 220.167 72.5417 220.326 72.291C220.49 72.0404 220.611 71.7533 220.689 71.4297C220.766 71.1016 220.805 70.7529 220.805 70.3838ZM225.144 71.9971L228.555 66.6035H229.827V74H228.555V68.6064L225.144 74H223.887V66.6035H225.144V71.9971ZM233.312 71.9971L236.723 66.6035H237.995V74H236.723V68.6064L233.312 74H232.054V66.6035H233.312V71.9971ZM236.033 63.9238H237.058C237.058 64.2793 236.976 64.596 236.812 64.874C236.648 65.1475 236.413 65.3617 236.108 65.5166C235.802 65.6715 235.44 65.749 235.021 65.749C234.387 65.749 233.886 65.5804 233.517 65.2432C233.152 64.9014 232.97 64.4616 232.97 63.9238H233.996C233.996 64.1927 234.073 64.4297 234.228 64.6348C234.383 64.8398 234.647 64.9424 235.021 64.9424C235.385 64.9424 235.645 64.8398 235.8 64.6348C235.955 64.4297 236.033 64.1927 236.033 63.9238ZM245.04 71.9971L248.451 66.6035H249.722V74H248.451V68.6064L245.04 74H243.782V66.6035H245.04V71.9971ZM256.782 66.6035V67.6494H253.207V66.6035H256.782ZM257.897 66.6035V74H256.632V66.6035H257.897ZM252.9 66.6035H254.171L253.98 70.1719C253.948 70.7233 253.895 71.2109 253.822 71.6348C253.754 72.054 253.658 72.4141 253.535 72.7148C253.417 73.0156 253.266 73.2617 253.084 73.4531C252.906 73.64 252.692 73.779 252.442 73.8701C252.191 73.9567 251.902 74 251.573 74H251.177V72.8857L251.45 72.8652C251.646 72.8516 251.813 72.806 251.949 72.7285C252.091 72.651 252.209 72.5371 252.305 72.3867C252.401 72.2318 252.478 72.0335 252.537 71.792C252.601 71.5505 252.649 71.2633 252.681 70.9307C252.717 70.598 252.745 70.2106 252.763 69.7686L252.9 66.6035ZM261.388 71.9971L264.8 66.6035H266.071V74H264.8V68.6064L261.388 74H260.131V66.6035H261.388V71.9971ZM274.511 70.4658H273.15V69.6865H274.408C274.759 69.6865 275.037 69.6432 275.242 69.5566C275.447 69.4655 275.593 69.3402 275.68 69.1807C275.766 69.0212 275.81 68.8343 275.81 68.6201C275.81 68.4287 275.759 68.2487 275.659 68.0801C275.563 67.9069 275.409 67.7679 275.194 67.6631C274.98 67.5537 274.693 67.499 274.333 67.499C274.041 67.499 273.777 67.5514 273.54 67.6562C273.303 67.7565 273.114 67.8955 272.973 68.0732C272.836 68.2464 272.768 68.4424 272.768 68.6611H271.503C271.503 68.21 271.631 67.8226 271.886 67.499C272.146 67.1709 272.49 66.918 272.918 66.7402C273.351 66.5625 273.823 66.4736 274.333 66.4736C274.761 66.4736 275.144 66.5215 275.481 66.6172C275.823 66.7083 276.113 66.8451 276.35 67.0273C276.587 67.2051 276.767 67.4284 276.89 67.6973C277.017 67.9616 277.081 68.2692 277.081 68.6201C277.081 68.8708 277.022 69.1077 276.903 69.3311C276.785 69.5544 276.614 69.7526 276.391 69.9258C276.167 70.0944 275.896 70.2266 275.577 70.3223C275.263 70.418 274.907 70.4658 274.511 70.4658ZM273.15 69.9873H274.511C274.953 69.9873 275.342 70.0306 275.68 70.1172C276.017 70.1992 276.299 70.3223 276.527 70.4863C276.755 70.6504 276.926 70.8532 277.04 71.0947C277.159 71.3317 277.218 71.6051 277.218 71.915C277.218 72.2614 277.147 72.5736 277.006 72.8516C276.869 73.125 276.673 73.3574 276.418 73.5488C276.163 73.7402 275.857 73.8861 275.502 73.9863C275.151 74.0866 274.761 74.1367 274.333 74.1367C273.854 74.1367 273.39 74.0547 272.938 73.8906C272.487 73.7266 272.116 73.4736 271.824 73.1318C271.533 72.7855 271.387 72.3457 271.387 71.8125H272.651C272.651 72.0358 272.722 72.2477 272.863 72.4482C273.005 72.6488 273.201 72.8105 273.451 72.9336C273.706 73.0566 274 73.1182 274.333 73.1182C274.688 73.1182 274.985 73.0635 275.222 72.9541C275.459 72.8447 275.636 72.6989 275.755 72.5166C275.878 72.3343 275.939 72.1361 275.939 71.9219C275.939 71.6439 275.885 71.4206 275.775 71.252C275.666 71.0833 275.497 70.9603 275.27 70.8828C275.046 70.8008 274.759 70.7598 274.408 70.7598H273.15V69.9873ZM283.307 72.7354V68.9277C283.307 68.6361 283.248 68.3831 283.129 68.1689C283.016 67.9502 282.842 67.7816 282.61 67.6631C282.378 67.5446 282.09 67.4854 281.749 67.4854C281.43 67.4854 281.149 67.54 280.908 67.6494C280.671 67.7588 280.484 67.9023 280.347 68.0801C280.215 68.2578 280.149 68.4492 280.149 68.6543H278.884C278.884 68.39 278.953 68.1279 279.089 67.8682C279.226 67.6084 279.422 67.3737 279.677 67.1641C279.937 66.9499 280.247 66.7812 280.607 66.6582C280.972 66.5306 281.377 66.4668 281.824 66.4668C282.362 66.4668 282.836 66.5579 283.246 66.7402C283.66 66.9225 283.984 67.1982 284.216 67.5674C284.453 67.932 284.572 68.39 284.572 68.9414V72.3867C284.572 72.6328 284.592 72.8949 284.633 73.1729C284.679 73.4508 284.745 73.6901 284.832 73.8906V74H283.512C283.448 73.8542 283.398 73.6605 283.362 73.4189C283.325 73.1729 283.307 72.945 283.307 72.7354ZM283.526 69.5156L283.54 70.4043H282.261C281.901 70.4043 281.58 70.4339 281.297 70.4932C281.015 70.5479 280.778 70.6322 280.587 70.7461C280.395 70.86 280.249 71.0036 280.149 71.1768C280.049 71.3454 279.999 71.5436 279.999 71.7715C279.999 72.0039 280.051 72.2158 280.156 72.4072C280.261 72.5986 280.418 72.7513 280.628 72.8652C280.842 72.9746 281.104 73.0293 281.414 73.0293C281.801 73.0293 282.143 72.9473 282.439 72.7832C282.735 72.6191 282.97 72.4186 283.143 72.1816C283.321 71.9447 283.417 71.7145 283.43 71.4912L283.97 72.0996C283.938 72.291 283.852 72.5029 283.711 72.7354C283.569 72.9678 283.38 73.1911 283.143 73.4053C282.911 73.6149 282.633 73.7904 282.309 73.9316C281.99 74.0684 281.63 74.1367 281.229 74.1367C280.728 74.1367 280.288 74.0387 279.91 73.8428C279.536 73.6468 279.244 73.3848 279.035 73.0566C278.83 72.724 278.727 72.3525 278.727 71.9424C278.727 71.5459 278.805 71.1973 278.96 70.8965C279.115 70.5911 279.338 70.3382 279.629 70.1377C279.921 69.9326 280.272 69.7777 280.682 69.6729C281.092 69.568 281.55 69.5156 282.056 69.5156H283.526ZM291.427 66.6035V67.6494H288.009V74H286.744V66.6035H291.427ZM293.88 68.0254V76.8438H292.608V66.6035H293.77L293.88 68.0254ZM298.863 70.2402V70.3838C298.863 70.9215 298.799 71.4206 298.672 71.8809C298.544 72.3366 298.357 72.7331 298.111 73.0703C297.87 73.4076 297.571 73.6696 297.216 73.8564C296.86 74.0433 296.452 74.1367 295.992 74.1367C295.523 74.1367 295.108 74.0592 294.748 73.9043C294.388 73.7493 294.082 73.5238 293.832 73.2275C293.581 72.9313 293.381 72.5758 293.23 72.1611C293.084 71.7464 292.984 71.2793 292.929 70.7598V69.9941C292.984 69.4473 293.087 68.9574 293.237 68.5244C293.387 68.0915 293.586 67.7223 293.832 67.417C294.082 67.1071 294.386 66.8724 294.741 66.7129C295.096 66.5488 295.507 66.4668 295.971 66.4668C296.436 66.4668 296.849 66.5579 297.209 66.7402C297.569 66.918 297.872 67.1732 298.118 67.5059C298.364 67.8385 298.549 68.2373 298.672 68.7021C298.799 69.1624 298.863 69.6751 298.863 70.2402ZM297.592 70.3838V70.2402C297.592 69.8711 297.553 69.5247 297.475 69.2012C297.398 68.873 297.277 68.5859 297.113 68.3398C296.954 68.0892 296.748 67.8932 296.498 67.752C296.247 67.6061 295.949 67.5332 295.602 67.5332C295.283 67.5332 295.005 67.5879 294.768 67.6973C294.536 67.8066 294.338 67.9548 294.174 68.1416C294.01 68.3239 293.875 68.5335 293.77 68.7705C293.67 69.0029 293.595 69.2445 293.545 69.4951V71.2656C293.636 71.5846 293.763 71.8854 293.928 72.168C294.092 72.446 294.31 72.6715 294.584 72.8447C294.857 73.0133 295.201 73.0977 295.616 73.0977C295.958 73.0977 296.252 73.027 296.498 72.8857C296.748 72.7399 296.954 72.5417 297.113 72.291C297.277 72.0404 297.398 71.7533 297.475 71.4297C297.553 71.1016 297.592 70.7529 297.592 70.3838ZM302.56 73.2344L304.618 66.6035H305.971L303.004 75.1416C302.936 75.3239 302.845 75.5199 302.731 75.7295C302.621 75.9437 302.48 76.1465 302.307 76.3379C302.134 76.5293 301.924 76.6842 301.678 76.8027C301.437 76.9258 301.147 76.9873 300.81 76.9873C300.71 76.9873 300.582 76.9736 300.427 76.9463C300.272 76.9189 300.163 76.8962 300.099 76.8779L300.092 75.8525C300.129 75.8571 300.186 75.8617 300.263 75.8662C300.345 75.8753 300.402 75.8799 300.434 75.8799C300.721 75.8799 300.965 75.8411 301.165 75.7637C301.366 75.6908 301.535 75.5654 301.671 75.3877C301.813 75.2145 301.933 74.9753 302.034 74.6699L302.56 73.2344ZM301.049 66.6035L302.97 72.3457L303.298 73.6787L302.389 74.1436L299.668 66.6035H301.049ZM309.962 70.4658H308.602V69.6865H309.859C310.21 69.6865 310.488 69.6432 310.693 69.5566C310.898 69.4655 311.044 69.3402 311.131 69.1807C311.217 69.0212 311.261 68.8343 311.261 68.6201C311.261 68.4287 311.211 68.2487 311.11 68.0801C311.015 67.9069 310.86 67.7679 310.646 67.6631C310.431 67.5537 310.144 67.499 309.784 67.499C309.493 67.499 309.228 67.5514 308.991 67.6562C308.754 67.7565 308.565 67.8955 308.424 68.0732C308.287 68.2464 308.219 68.4424 308.219 68.6611H306.954C306.954 68.21 307.082 67.8226 307.337 67.499C307.597 67.1709 307.941 66.918 308.369 66.7402C308.802 66.5625 309.274 66.4736 309.784 66.4736C310.213 66.4736 310.595 66.5215 310.933 66.6172C311.274 66.7083 311.564 66.8451 311.801 67.0273C312.038 67.2051 312.218 67.4284 312.341 67.6973C312.468 67.9616 312.532 68.2692 312.532 68.6201C312.532 68.8708 312.473 69.1077 312.354 69.3311C312.236 69.5544 312.065 69.7526 311.842 69.9258C311.618 70.0944 311.347 70.2266 311.028 70.3223C310.714 70.418 310.358 70.4658 309.962 70.4658ZM308.602 69.9873H309.962C310.404 69.9873 310.794 70.0306 311.131 70.1172C311.468 70.1992 311.751 70.3223 311.979 70.4863C312.206 70.6504 312.377 70.8532 312.491 71.0947C312.61 71.3317 312.669 71.6051 312.669 71.915C312.669 72.2614 312.598 72.5736 312.457 72.8516C312.32 73.125 312.124 73.3574 311.869 73.5488C311.614 73.7402 311.309 73.8861 310.953 73.9863C310.602 74.0866 310.213 74.1367 309.784 74.1367C309.306 74.1367 308.841 74.0547 308.39 73.8906C307.938 73.7266 307.567 73.4736 307.275 73.1318C306.984 72.7855 306.838 72.3457 306.838 71.8125H308.103C308.103 72.0358 308.173 72.2477 308.314 72.4482C308.456 72.6488 308.652 72.8105 308.902 72.9336C309.158 73.0566 309.451 73.1182 309.784 73.1182C310.14 73.1182 310.436 73.0635 310.673 72.9541C310.91 72.8447 311.088 72.6989 311.206 72.5166C311.329 72.3343 311.391 72.1361 311.391 71.9219C311.391 71.6439 311.336 71.4206 311.227 71.252C311.117 71.0833 310.949 70.9603 310.721 70.8828C310.497 70.8008 310.21 70.7598 309.859 70.7598H308.602V69.9873ZM315.764 71.9971L319.175 66.6035H320.447V74H319.175V68.6064L315.764 74H314.506V66.6035H315.764V71.9971ZM325.579 66.6035V74H324.308V66.6035H325.579ZM328.061 66.6035V67.6289H321.874V66.6035H328.061ZM331.915 74.1367C331.4 74.1367 330.933 74.0501 330.513 73.877C330.099 73.6992 329.741 73.4508 329.44 73.1318C329.144 72.8128 328.916 72.4346 328.757 71.9971C328.597 71.5596 328.517 71.0811 328.517 70.5615V70.2744C328.517 69.6729 328.606 69.1374 328.784 68.668C328.962 68.194 329.203 67.793 329.509 67.4648C329.814 67.1367 330.16 66.8883 330.548 66.7197C330.935 66.5511 331.336 66.4668 331.751 66.4668C332.279 66.4668 332.735 66.5579 333.118 66.7402C333.505 66.9225 333.822 67.1777 334.068 67.5059C334.314 67.8294 334.497 68.2122 334.615 68.6543C334.734 69.0918 334.793 69.5703 334.793 70.0898V70.6572H329.269V69.625H333.528V69.5293C333.51 69.2012 333.442 68.8822 333.323 68.5723C333.209 68.2624 333.027 68.0072 332.776 67.8066C332.526 67.6061 332.184 67.5059 331.751 67.5059C331.464 67.5059 331.199 67.5674 330.958 67.6904C330.716 67.8089 330.509 67.9867 330.336 68.2236C330.163 68.4606 330.028 68.75 329.932 69.0918C329.837 69.4336 329.789 69.8278 329.789 70.2744V70.5615C329.789 70.9124 329.837 71.2428 329.932 71.5527C330.033 71.8581 330.176 72.127 330.363 72.3594C330.554 72.5918 330.785 72.7741 331.054 72.9062C331.327 73.0384 331.637 73.1045 331.983 73.1045C332.43 73.1045 332.808 73.0133 333.118 72.8311C333.428 72.6488 333.699 72.4049 333.931 72.0996L334.697 72.708C334.538 72.9495 334.335 73.1797 334.089 73.3984C333.843 73.6172 333.54 73.7949 333.179 73.9316C332.824 74.0684 332.402 74.1367 331.915 74.1367ZM348.421 70.4316V70.5752C348.421 71.0947 348.364 71.5732 348.25 72.0107C348.136 72.4437 347.965 72.8197 347.737 73.1387C347.514 73.4577 347.236 73.7061 346.903 73.8838C346.571 74.057 346.186 74.1436 345.748 74.1436C345.388 74.1436 345.071 74.0957 344.798 74C344.524 73.8997 344.292 73.7562 344.101 73.5693C343.914 73.3825 343.763 73.1592 343.649 72.8994C343.54 72.6351 343.465 72.3389 343.424 72.0107V68.7295C343.465 68.3786 343.54 68.0641 343.649 67.7861C343.763 67.5081 343.914 67.2712 344.101 67.0752C344.292 66.8792 344.522 66.7288 344.791 66.624C345.06 66.5192 345.374 66.4668 345.734 66.4668C346.09 66.4668 346.409 66.5306 346.691 66.6582C346.979 66.7812 347.229 66.959 347.443 67.1914C347.662 67.4238 347.842 67.7041 347.983 68.0322C348.129 68.3558 348.239 68.7204 348.312 69.126C348.384 69.5316 348.421 69.9668 348.421 70.4316ZM347.156 70.5752V70.4316C347.156 70.1126 347.133 69.8096 347.088 69.5225C347.047 69.2308 346.981 68.9642 346.89 68.7227C346.803 68.4766 346.689 68.2624 346.548 68.0801C346.407 67.8978 346.236 67.7565 346.035 67.6562C345.839 67.556 345.614 67.5059 345.358 67.5059C345.085 67.5059 344.857 67.54 344.675 67.6084C344.497 67.6768 344.358 67.7679 344.258 67.8818C344.158 67.9912 344.085 68.1074 344.039 68.2305V72.5166C344.094 72.6169 344.174 72.7126 344.278 72.8037C344.383 72.8903 344.524 72.9632 344.702 73.0225C344.88 73.0771 345.103 73.1045 345.372 73.1045C345.691 73.1045 345.962 73.0407 346.186 72.9131C346.413 72.7809 346.598 72.5986 346.739 72.3662C346.885 72.1338 346.99 71.8649 347.054 71.5596C347.122 71.2542 347.156 70.9261 347.156 70.5752ZM339.637 70.5752V70.4316C339.637 69.9668 339.673 69.5316 339.746 69.126C339.819 68.7204 339.928 68.3558 340.074 68.0322C340.22 67.7041 340.4 67.4238 340.614 67.1914C340.833 66.959 341.084 66.7812 341.366 66.6582C341.653 66.5306 341.975 66.4668 342.33 66.4668C342.681 66.4668 342.986 66.5192 343.246 66.624C343.51 66.7288 343.734 66.8792 343.916 67.0752C344.098 67.2712 344.244 67.5081 344.354 67.7861C344.463 68.0641 344.54 68.3786 344.586 68.7295V71.8809C344.545 72.2272 344.47 72.5394 344.36 72.8174C344.251 73.0954 344.105 73.3346 343.923 73.5352C343.741 73.7311 343.515 73.8815 343.246 73.9863C342.982 74.0911 342.672 74.1436 342.316 74.1436C341.879 74.1436 341.494 74.057 341.161 73.8838C340.828 73.7061 340.548 73.4577 340.32 73.1387C340.097 72.8197 339.926 72.4437 339.808 72.0107C339.694 71.5732 339.637 71.0947 339.637 70.5752ZM340.908 70.4316V70.5752C340.908 70.9261 340.938 71.2542 340.997 71.5596C341.061 71.8649 341.159 72.1338 341.291 72.3662C341.428 72.5986 341.605 72.7809 341.824 72.9131C342.043 73.0407 342.312 73.1045 342.631 73.1045C342.904 73.1045 343.13 73.0703 343.308 73.002C343.485 72.9336 343.627 72.8447 343.731 72.7354C343.836 72.626 343.916 72.512 343.971 72.3936V68.2305C343.925 68.1074 343.85 67.9912 343.745 67.8818C343.645 67.7679 343.506 67.6768 343.328 67.6084C343.15 67.54 342.923 67.5059 342.645 67.5059C342.326 67.5059 342.054 67.5833 341.831 67.7383C341.608 67.8932 341.428 68.1051 341.291 68.374C341.159 68.6429 341.061 68.9551 340.997 69.3105C340.938 69.6615 340.908 70.0352 340.908 70.4316ZM343.342 76.8438V63.5H344.613V76.8438H343.342ZM354.524 72.7354V68.9277C354.524 68.6361 354.465 68.3831 354.346 68.1689C354.232 67.9502 354.059 67.7816 353.827 67.6631C353.594 67.5446 353.307 67.4854 352.965 67.4854C352.646 67.4854 352.366 67.54 352.125 67.6494C351.888 67.7588 351.701 67.9023 351.564 68.0801C351.432 68.2578 351.366 68.4492 351.366 68.6543H350.101C350.101 68.39 350.17 68.1279 350.306 67.8682C350.443 67.6084 350.639 67.3737 350.894 67.1641C351.154 66.9499 351.464 66.7812 351.824 66.6582C352.188 66.5306 352.594 66.4668 353.041 66.4668C353.578 66.4668 354.052 66.5579 354.462 66.7402C354.877 66.9225 355.201 67.1982 355.433 67.5674C355.67 67.932 355.789 68.39 355.789 68.9414V72.3867C355.789 72.6328 355.809 72.8949 355.85 73.1729C355.896 73.4508 355.962 73.6901 356.048 73.8906V74H354.729C354.665 73.8542 354.615 73.6605 354.579 73.4189C354.542 73.1729 354.524 72.945 354.524 72.7354ZM354.743 69.5156L354.756 70.4043H353.478C353.118 70.4043 352.797 70.4339 352.514 70.4932C352.232 70.5479 351.995 70.6322 351.803 70.7461C351.612 70.86 351.466 71.0036 351.366 71.1768C351.266 71.3454 351.215 71.5436 351.215 71.7715C351.215 72.0039 351.268 72.2158 351.373 72.4072C351.477 72.5986 351.635 72.7513 351.844 72.8652C352.059 72.9746 352.321 73.0293 352.63 73.0293C353.018 73.0293 353.36 72.9473 353.656 72.7832C353.952 72.6191 354.187 72.4186 354.36 72.1816C354.538 71.9447 354.633 71.7145 354.647 71.4912L355.187 72.0996C355.155 72.291 355.069 72.5029 354.927 72.7354C354.786 72.9678 354.597 73.1911 354.36 73.4053C354.128 73.6149 353.85 73.7904 353.526 73.9316C353.207 74.0684 352.847 74.1367 352.446 74.1367C351.945 74.1367 351.505 74.0387 351.127 73.8428C350.753 73.6468 350.461 73.3848 350.252 73.0566C350.046 72.724 349.944 72.3525 349.944 71.9424C349.944 71.5459 350.021 71.1973 350.176 70.8965C350.331 70.5911 350.555 70.3382 350.846 70.1377C351.138 69.9326 351.489 69.7777 351.899 69.6729C352.309 69.568 352.767 69.5156 353.273 69.5156H354.743ZM359.233 71.9971L362.644 66.6035H363.915V74H362.644V68.6064L359.233 74H357.975V66.6035H359.233V71.9971ZM361.953 63.9238H362.979C362.979 64.2793 362.897 64.596 362.733 64.874C362.569 65.1475 362.334 65.3617 362.029 65.5166C361.723 65.6715 361.361 65.749 360.942 65.749C360.308 65.749 359.807 65.5804 359.438 65.2432C359.073 64.9014 358.891 64.4616 358.891 63.9238H359.916C359.916 64.1927 359.994 64.4297 360.149 64.6348C360.304 64.8398 360.568 64.9424 360.942 64.9424C361.306 64.9424 361.566 64.8398 361.721 64.6348C361.876 64.4297 361.953 64.1927 361.953 63.9238ZM370.975 66.6035V67.6494H367.4V66.6035H370.975ZM372.09 66.6035V74H370.825V66.6035H372.09ZM367.093 66.6035H368.364L368.173 70.1719C368.141 70.7233 368.088 71.2109 368.015 71.6348C367.947 72.054 367.851 72.4141 367.728 72.7148C367.61 73.0156 367.459 73.2617 367.277 73.4531C367.099 73.64 366.885 73.779 366.635 73.8701C366.384 73.9567 366.095 74 365.766 74H365.37V72.8857L365.643 72.8652C365.839 72.8516 366.006 72.806 366.142 72.7285C366.284 72.651 366.402 72.5371 366.498 72.3867C366.594 72.2318 366.671 72.0335 366.73 71.792C366.794 71.5505 366.842 71.2633 366.874 70.9307C366.91 70.598 366.938 70.2106 366.956 69.7686L367.093 66.6035ZM377.795 73.3301C377.795 73.1159 377.861 72.9359 377.993 72.79C378.13 72.6396 378.326 72.5645 378.581 72.5645C378.836 72.5645 379.03 72.6396 379.162 72.79C379.299 72.9359 379.367 73.1159 379.367 73.3301C379.367 73.5397 379.299 73.7174 379.162 73.8633C379.03 74.0091 378.836 74.082 378.581 74.082C378.326 74.082 378.13 74.0091 377.993 73.8633C377.861 73.7174 377.795 73.5397 377.795 73.3301ZM381.574 73.3301C381.574 73.1159 381.64 72.9359 381.772 72.79C381.909 72.6396 382.105 72.5645 382.36 72.5645C382.615 72.5645 382.809 72.6396 382.941 72.79C383.078 72.9359 383.146 73.1159 383.146 73.3301C383.146 73.5397 383.078 73.7174 382.941 73.8633C382.809 74.0091 382.615 74.082 382.36 74.082C382.105 74.082 381.909 74.0091 381.772 73.8633C381.64 73.7174 381.574 73.5397 381.574 73.3301ZM385.353 73.3301C385.353 73.1159 385.419 72.9359 385.551 72.79C385.688 72.6396 385.884 72.5645 386.139 72.5645C386.394 72.5645 386.588 72.6396 386.72 72.79C386.857 72.9359 386.925 73.1159 386.925 73.3301C386.925 73.5397 386.857 73.7174 386.72 73.8633C386.588 74.0091 386.394 74.082 386.139 74.082C385.884 74.082 385.688 74.0091 385.551 73.8633C385.419 73.7174 385.353 73.5397 385.353 73.3301Z" fill="#92929D"/>
<path fill-rule="evenodd" clip-rule="evenodd" d="M616 69C616 72.866 619.134 76 623 76C626.866 76 630 72.866 630 69C630 65.134 626.866 62 623 62C619.134 62 616 65.134 616 69ZM629.333 69C629.333 72.4978 626.498 75.3333 623 75.3333C619.502 75.3333 616.667 72.4978 616.667 69C616.667 65.5022 619.502 62.6667 623 62.6667C626.498 62.6667 629.333 65.5022 629.333 69ZM620.138 71.9464C619.991 71.8361 619.961 71.6272 620.071 71.4798C620.181 71.3324 620.39 71.3023 620.538 71.4126C621.872 72.411 624.17 72.4172 625.465 71.4158C625.611 71.3032 625.82 71.33 625.933 71.4756C626.045 71.6213 626.019 71.8306 625.873 71.9432C624.338 73.1297 621.71 73.1226 620.138 71.9464ZM621 68.3333C621.368 68.3333 621.667 68.0349 621.667 67.6667C621.667 67.2985 621.368 67 621 67C620.632 67 620.333 67.2985 620.333 67.6667C620.333 68.0349 620.632 68.3333 621 68.3333ZM625 68.3333C625.368 68.3333 625.667 68.0349 625.667 67.6667C625.667 67.2985 625.368 67 625 67C624.632 67 624.333 67.2985 624.333 67.6667C624.333 68.0349 624.632 68.3333 625 68.3333Z" fill="#92929D"/>
<path d="M641.577 75.119L652.3 68.9282L641.577 62.7373L643.336 68.8311L643.364 68.9282L643.336 69.0253L641.577 75.119Z" fill="white" stroke="#979797" stroke-width="0.7"/>
<path fill-rule="evenodd" clip-rule="evenodd" d="M597.477 73.341C596.823 73.9574 595.794 73.946 595.155 73.3068C594.504 72.6559 594.504 71.6006 595.155 70.9497L600.34 65.7643C600.47 65.6341 600.682 65.6341 600.812 65.7643C600.942 65.8945 600.942 66.1055 600.812 66.2357L595.626 71.4212C595.236 71.8117 595.236 72.4448 595.626 72.8354C596.017 73.2259 596.65 73.2259 597.04 72.8354L602.226 67.6499C603.137 66.7387 603.137 65.2613 602.226 64.3501C601.315 63.4389 599.837 63.4389 598.926 64.3501L593.741 69.5355C592.309 70.9675 592.309 73.2891 593.741 74.721C595.173 76.1529 597.494 76.1529 598.926 74.721L603.169 70.4783C603.299 70.3482 603.51 70.3482 603.64 70.4783C603.77 70.6085 603.77 70.8196 603.64 70.9497L599.397 75.1924C597.705 76.8847 594.961 76.8847 593.269 75.1924C591.589 73.5117 591.577 70.794 593.235 69.0991L598.455 63.8787C599.626 62.7071 601.526 62.7071 602.697 63.8787C603.869 65.0503 603.869 66.9497 602.697 68.1213L597.477 73.341Z" fill="#92929D"/>
<path fill-rule="evenodd" clip-rule="evenodd" d="M53.7831 22.9762C54.4976 23.135 55.135 22.4976 54.9762 21.7831L53.8786 16.8439C54.6123 15.3503 55 13.7022 55 12C55 5.92487 50.0751 1 44 1C37.9249 1 33 5.92487 33 12C33 18.0751 37.9249 23 44 23C45.7022 23 47.3503 22.6123 48.8439 21.8786L53.7831 22.9762ZM51.9424 16.2373C51.8296 16.4481 51.7961 16.6924 51.848 16.9258L52.6829 20.6829L48.9258 19.848C48.6924 19.7961 48.4481 19.8296 48.2373 19.9424C46.9449 20.6335 45.5 21 44 21C39.0294 21 35 16.9706 35 12C35 7.02944 39.0294 3 44 3C48.9706 3 53 7.02944 53 12C53 13.5 52.6335 14.9449 51.9424 16.2373ZM41 14C42.1046 14 43 13.1046 43 12C43 10.8954 42.1046 10 41 10C39.8954 10 39 10.8954 39 12C39 13.1046 39.8954 14 41 14ZM49 12C49 13.1046 48.1046 14 47 14C45.8954 14 45 13.1046 45 12C45 10.8954 45.8954 10 47 10C48.1046 10 49 10.8954 49 12Z" fill="#B5B5BE"/>
<path d="M80.1705 18H82.3125L77.5114 11.625L82.3409 6.36364H80.1648L75.6364 11.2784H75.0341V6.36364H73.2784V18H75.0341V12.7841H76.2386L80.1705 18ZM86.9901 18.1761C89.4503 18.1761 91.0582 16.375 91.0582 13.6761C91.0582 10.9602 89.4503 9.15909 86.9901 9.15909C84.5298 9.15909 82.9219 10.9602 82.9219 13.6761C82.9219 16.375 84.5298 18.1761 86.9901 18.1761ZM86.9957 16.75C85.3878 16.75 84.6378 15.3466 84.6378 13.6705C84.6378 12 85.3878 10.5795 86.9957 10.5795C88.5923 10.5795 89.3423 12 89.3423 13.6705C89.3423 15.3466 88.5923 16.75 86.9957 16.75ZM97.8523 15.8977L95.0909 9.27273H92.9545V18H94.6193V11.6534L97.2216 18H98.483L101.131 11.6761V18H102.784V9.27273H100.67L97.8523 15.8977ZM109.946 15.8977L107.185 9.27273H105.048V18H106.713V11.6534L109.315 18H110.577L113.224 11.6761V18H114.878V9.27273H112.764L109.946 15.8977ZM120.903 18.1761C122.807 18.1761 124.153 17.2386 124.54 15.8182L122.932 15.5284C122.625 16.3523 121.886 16.7727 120.92 16.7727C119.466 16.7727 118.489 15.8295 118.443 14.1477H124.648V13.5455C124.648 10.392 122.761 9.15909 120.784 9.15909C118.352 9.15909 116.75 11.0114 116.75 13.6932C116.75 16.4034 118.33 18.1761 120.903 18.1761ZM118.449 12.875C118.517 11.6364 119.415 10.5625 120.795 10.5625C122.114 10.5625 122.977 11.5398 122.983 12.875H118.449ZM128.197 9.27273H126.533V18H128.197V14.375H131.976V18H133.635V9.27273H131.976V12.9034H128.197V9.27273ZM134.825 10.7386H137.683V18H139.342V10.7386H142.189V9.27273H134.825V10.7386ZM146.119 18.1932C147.562 18.1932 148.375 17.4602 148.699 16.8068H148.767V18H150.426V12.2045C150.426 9.66477 148.426 9.15909 147.04 9.15909C145.46 9.15909 144.006 9.79545 143.438 11.3864L145.034 11.75C145.284 11.1307 145.92 10.5341 147.062 10.5341C148.159 10.5341 148.722 11.108 148.722 12.0966V12.1364C148.722 12.7557 148.085 12.7443 146.517 12.9261C144.864 13.1193 143.17 13.5511 143.17 15.5341C143.17 17.25 144.46 18.1932 146.119 18.1932ZM146.489 16.8295C145.528 16.8295 144.835 16.3977 144.835 15.5568C144.835 14.6477 145.642 14.3239 146.625 14.1932C147.176 14.1193 148.483 13.9716 148.727 13.7273V14.8523C148.727 15.8864 147.903 16.8295 146.489 16.8295ZM152.689 21.2727H154.388V16.642H154.49C154.797 17.1989 155.422 18.1705 157.013 18.1705C159.126 18.1705 160.661 16.4773 160.661 13.6534C160.661 10.8239 159.104 9.15909 156.996 9.15909C155.376 9.15909 154.791 10.1477 154.49 10.6875H154.348V9.27273H152.689V21.2727ZM154.354 13.6364C154.354 11.8125 155.149 10.6023 156.632 10.6023C158.172 10.6023 158.945 11.9034 158.945 13.6364C158.945 15.3864 158.149 16.7216 156.632 16.7216C155.172 16.7216 154.354 15.4716 154.354 13.6364ZM164.229 15.6193V9.27273H162.564V18H164.411L168.24 11.6477V18H169.905V9.27273H168.075L164.229 15.6193ZM173.854 15.6193V9.27273H172.189V18H174.036L177.865 11.6477V18H179.53V9.27273H177.7L173.854 15.6193Z" fill="#171725"/>
</svg>
