<svg width="20" height="20" viewBox="0 0 20 20" fill="none" xmlns="http://www.w3.org/2000/svg">
<path fill-rule="evenodd" clip-rule="evenodd" d="M12.5 10.7604V15C12.5 15.3156 12.3216 15.6042 12.0393 15.7454L8.70596 17.412C8.15188 17.6891 7.49995 17.2862 7.49995 16.6667V10.7604L1.85499 3.86103C1.40981 3.31692 1.79693 2.5 2.49995 2.5H17.5C18.203 2.5 18.5901 3.31692 18.1449 3.86103L12.5 10.7604ZM10.8333 14.485V10.463C10.8333 10.2706 10.8998 10.0841 11.0217 9.93526L15.7414 4.16667H4.25849L8.97825 9.93526C9.10007 10.0841 9.16662 10.2706 9.16662 10.463V15.3183L10.8333 14.485Z" fill="#92929D"/>
</svg>
