<svg width="665" height="80" viewBox="0 0 665 80" fill="none" xmlns="http://www.w3.org/2000/svg">
<path fill-rule="evenodd" clip-rule="evenodd" d="M38 2H50C52.2091 2 54 3.79086 54 6V18C54 20.2091 52.2091 22 50 22H38C35.7909 22 34 20.2091 34 18V6C34 3.79086 35.7909 2 38 2ZM38 4C36.8954 4 36 4.89543 36 6V18C36 19.1046 36.8954 20 38 20H50C51.1046 20 52 19.1046 52 18V6C52 4.89543 51.1046 4 50 4H38ZM39 8C38.4477 8 38 7.55228 38 7C38 6.44772 38.4477 6 39 6H49C49.5523 6 50 6.44772 50 7C50 7.55228 49.5523 8 49 8H39ZM39 13C38.4477 13 38 12.5523 38 12C38 11.4477 38.4477 11 39 11H49C49.5523 11 50 11.4477 50 12C50 12.5523 49.5523 13 49 13H39ZM39 18C38.4477 18 38 17.5523 38 17C38 16.4477 38.4477 16 39 16H44C44.5523 16 45 16.4477 45 17C45 17.5523 44.5523 18 44 18H39Z" fill="#B5B5BE"/>
<path d="M72.3977 20.8125H74.0795V18H81.892V20.7955H83.5739V16.5114H82.2557V6.36364H75.0795L74.8068 11.2784C74.6307 14.517 73.9432 15.8523 73.1648 16.5114H72.3977V20.8125ZM75.233 16.5114C75.8977 15.4489 76.3466 13.7386 76.4886 11.2784L76.6705 7.875H80.5739V16.5114H75.233ZM89.1222 18.1761C91.0256 18.1761 92.3722 17.2386 92.7585 15.8182L91.1506 15.5284C90.8438 16.3523 90.1051 16.7727 89.1392 16.7727C87.6847 16.7727 86.7074 15.8295 86.6619 14.1477H92.8665V13.5455C92.8665 10.392 90.9801 9.15909 89.0028 9.15909C86.571 9.15909 84.9688 11.0114 84.9688 13.6932C84.9688 16.4034 86.5483 18.1761 89.1222 18.1761ZM86.6676 12.875C86.7358 11.6364 87.6335 10.5625 89.0142 10.5625C90.3324 10.5625 91.196 11.5398 91.2017 12.875H86.6676ZM96.4162 15.6193V9.27273H94.7514V18H96.598L100.428 11.6477V18H102.092V9.27273H100.263L96.4162 15.6193ZM99.5355 6.31818C99.5355 6.89205 99.2173 7.39773 98.4219 7.39773C97.6151 7.39773 97.3139 6.88636 97.3139 6.31818H95.9219C95.9219 7.59659 96.8935 8.47727 98.4219 8.47727C99.9616 8.47727 100.933 7.59659 100.933 6.31818H99.5355ZM108.053 18.1761C110.115 18.1761 111.45 16.9375 111.638 15.2386H109.984C109.768 16.1818 109.036 16.7386 108.064 16.7386C106.626 16.7386 105.7 15.5398 105.7 13.6364C105.7 11.767 106.643 10.5909 108.064 10.5909C109.143 10.5909 109.803 11.2727 109.984 12.0909H111.638C111.456 10.3295 110.018 9.15909 108.036 9.15909C105.575 9.15909 103.984 11.0114 103.984 13.6761C103.984 16.3068 105.518 18.1761 108.053 18.1761ZM112.794 10.7386H115.652V18H117.311V10.7386H120.158V9.27273H112.794V10.7386ZM121.955 18H126.125C128.034 18 129.153 17.0341 129.153 15.6477C129.153 14.3523 128.159 13.5568 126.994 13.4205C128.068 13.2159 128.778 12.625 128.778 11.6023C128.778 10.1705 127.54 9.27273 125.574 9.27273H121.955V18ZM123.551 16.5795V14.1534H126.125C126.966 14.1534 127.472 14.6477 127.472 15.4602C127.472 16.1534 126.966 16.5795 126.125 16.5795H123.551ZM123.551 12.9091V10.7102H125.574C126.54 10.7102 127.125 11.1136 127.125 11.7841C127.125 12.483 126.545 12.9091 125.591 12.9091H123.551ZM132.682 15.6193V9.27273H131.017V18H132.864L136.693 11.6477V18H138.358V9.27273H136.528L132.682 15.6193ZM145.847 18H147.443V9.27273H143.756C141.744 9.27273 140.517 10.3125 140.517 11.9545C140.517 13.1023 141.119 13.9489 142.159 14.3409L140.119 18H141.858L143.761 14.5852H145.847V18ZM145.847 13.2102H143.642C142.716 13.2102 142.176 12.7216 142.182 11.9773C142.176 11.2273 142.761 10.7216 143.756 10.7216H145.847V13.2102Z" fill="#171725"/>
<path fill-rule="evenodd" clip-rule="evenodd" d="M88 80C96.8366 80 104 72.8366 104 64C104 55.1634 96.8366 48 88 48C79.1634 48 72 55.1634 72 64C72 72.8366 79.1634 80 88 80Z" fill="#A4E3FE"/>
<path d="M87.1732 69H81.4192V59.004H87.1732V60.74H83.5332V62.938H86.9212V64.674H83.5332V67.25H87.1732V69ZM95.5672 59.004V60.754H91.3672V69H89.2532V59.004H95.5672Z" fill="white"/>
<path d="M119.014 68.5H113.26V58.504H119.014V60.24H115.374V62.438H118.762V64.174H115.374V66.75H119.014V68.5ZM127.802 62.858C127.802 63.2687 127.671 63.6187 127.41 63.908C127.158 64.1973 126.78 64.384 126.276 64.468V64.524C126.808 64.5893 127.233 64.7713 127.55 65.07C127.877 65.3687 128.04 65.7513 128.04 66.218C128.04 66.6567 127.923 67.0487 127.69 67.394C127.466 67.7393 127.107 68.01 126.612 68.206C126.117 68.402 125.469 68.5 124.666 68.5H121.026V60.856H124.666C125.263 60.856 125.795 60.9213 126.262 61.052C126.738 61.1733 127.111 61.3787 127.382 61.668C127.662 61.9573 127.802 62.354 127.802 62.858ZM125.688 63.026C125.688 62.5593 125.319 62.326 124.582 62.326H123.112V63.838H124.344C124.783 63.838 125.114 63.7773 125.338 63.656C125.571 63.5253 125.688 63.3153 125.688 63.026ZM125.884 66.106C125.884 65.8073 125.767 65.5927 125.534 65.462C125.301 65.322 124.951 65.252 124.484 65.252H123.112V67.058H124.526C124.918 67.058 125.24 66.988 125.492 66.848C125.753 66.6987 125.884 66.4513 125.884 66.106ZM135.209 60.856V62.424H132.017V68.5H129.931V60.856H135.209ZM139.729 60.716C140.784 60.716 141.619 61.0193 142.235 61.626C142.851 62.2233 143.159 63.0773 143.159 64.188V65.196H138.231C138.25 65.784 138.423 66.246 138.749 66.582C139.085 66.918 139.547 67.086 140.135 67.086C140.63 67.086 141.078 67.0393 141.479 66.946C141.881 66.8433 142.296 66.6893 142.725 66.484V68.094C142.352 68.2807 141.955 68.416 141.535 68.5C141.125 68.5933 140.625 68.64 140.037 68.64C139.272 68.64 138.595 68.5 138.007 68.22C137.419 67.9307 136.957 67.4967 136.621 66.918C136.285 66.3393 136.117 65.6113 136.117 64.734C136.117 63.838 136.267 63.096 136.565 62.508C136.873 61.9107 137.298 61.4627 137.839 61.164C138.381 60.8653 139.011 60.716 139.729 60.716ZM139.743 62.2C139.342 62.2 139.006 62.3307 138.735 62.592C138.474 62.8533 138.32 63.2593 138.273 63.81H141.199C141.19 63.3433 141.069 62.9607 140.835 62.662C140.602 62.354 140.238 62.2 139.743 62.2ZM147.037 60.856V63.796H149.949V60.856H152.035V68.5H149.949V65.35H147.037V68.5H144.951V60.856H147.037ZM156.337 63.88C156.337 64.0387 156.327 64.2347 156.309 64.468C156.299 64.7013 156.285 64.9393 156.267 65.182C156.257 65.4247 156.243 65.6393 156.225 65.826C156.206 66.0127 156.192 66.1433 156.183 66.218L159.711 60.856H162.217V68.5H160.201V65.448C160.201 65.196 160.21 64.9207 160.229 64.622C160.247 64.314 160.266 64.0293 160.285 63.768C160.313 63.4973 160.331 63.292 160.341 63.152L156.827 68.5H154.321V60.856H156.337V63.88ZM165.659 68.5H163.405L165.463 65.476C165.071 65.3173 164.721 65.0607 164.413 64.706C164.114 64.342 163.965 63.8473 163.965 63.222C163.965 62.4567 164.254 61.8733 164.833 61.472C165.411 61.0613 166.153 60.856 167.059 60.856H170.615V68.5H168.529V65.658H167.381L165.659 68.5ZM166.009 63.236C166.009 63.5533 166.135 63.8053 166.387 63.992C166.639 64.1693 166.965 64.258 167.367 64.258H168.529V62.326H167.101C166.727 62.326 166.452 62.4193 166.275 62.606C166.097 62.7833 166.009 62.9933 166.009 63.236ZM183.675 58.504V60.254H179.475V68.5H177.361V58.504H183.675ZM191.1 64.664C191.1 65.9333 190.764 66.9133 190.092 67.604C189.429 68.2947 188.524 68.64 187.376 68.64C186.667 68.64 186.032 68.486 185.472 68.178C184.921 67.87 184.487 67.422 184.17 66.834C183.853 66.2367 183.694 65.5133 183.694 64.664C183.694 63.3947 184.025 62.4193 184.688 61.738C185.351 61.0567 186.261 60.716 187.418 60.716C188.137 60.716 188.771 60.87 189.322 61.178C189.873 61.486 190.307 61.934 190.624 62.522C190.941 63.1007 191.1 63.8147 191.1 64.664ZM185.822 64.664C185.822 65.42 185.943 65.994 186.186 66.386C186.438 66.7687 186.844 66.96 187.404 66.96C187.955 66.96 188.351 66.7687 188.594 66.386C188.846 65.994 188.972 65.42 188.972 64.664C188.972 63.908 188.846 63.3433 188.594 62.97C188.351 62.5873 187.95 62.396 187.39 62.396C186.839 62.396 186.438 62.5873 186.186 62.97C185.943 63.3433 185.822 63.908 185.822 64.664ZM197.18 60.716C198.039 60.716 198.734 61.052 199.266 61.724C199.798 62.3867 200.064 63.3667 200.064 64.664C200.064 65.9613 199.789 66.9507 199.238 67.632C198.687 68.304 197.983 68.64 197.124 68.64C196.573 68.64 196.135 68.542 195.808 68.346C195.481 68.1407 195.215 67.912 195.01 67.66H194.898C194.973 68.052 195.01 68.4253 195.01 68.78V71.86H192.924V60.856H194.618L194.912 61.85H195.01C195.215 61.542 195.491 61.276 195.836 61.052C196.181 60.828 196.629 60.716 197.18 60.716ZM196.508 62.382C195.967 62.382 195.584 62.55 195.36 62.886C195.145 63.222 195.029 63.7353 195.01 64.426V64.65C195.01 65.3873 195.117 65.9567 195.332 66.358C195.556 66.75 195.957 66.946 196.536 66.946C197.012 66.946 197.362 66.75 197.586 66.358C197.819 65.9567 197.936 65.3827 197.936 64.636C197.936 63.1333 197.46 62.382 196.508 62.382ZM205.033 60.716C206.088 60.716 206.923 61.0193 207.539 61.626C208.155 62.2233 208.463 63.0773 208.463 64.188V65.196H203.535C203.554 65.784 203.727 66.246 204.053 66.582C204.389 66.918 204.851 67.086 205.439 67.086C205.934 67.086 206.382 67.0393 206.783 66.946C207.185 66.8433 207.6 66.6893 208.029 66.484V68.094C207.656 68.2807 207.259 68.416 206.839 68.5C206.429 68.5933 205.929 68.64 205.341 68.64C204.576 68.64 203.899 68.5 203.311 68.22C202.723 67.9307 202.261 67.4967 201.925 66.918C201.589 66.3393 201.421 65.6113 201.421 64.734C201.421 63.838 201.571 63.096 201.869 62.508C202.177 61.9107 202.602 61.4627 203.143 61.164C203.685 60.8653 204.315 60.716 205.033 60.716ZM205.047 62.2C204.646 62.2 204.31 62.3307 204.039 62.592C203.778 62.8533 203.624 63.2593 203.577 63.81H206.503C206.494 63.3433 206.373 62.9607 206.139 62.662C205.906 62.354 205.542 62.2 205.047 62.2ZM217.101 68.5H215.015V62.424H213.097C212.976 63.9173 212.812 65.1213 212.607 66.036C212.411 66.9413 212.136 67.604 211.781 68.024C211.426 68.4347 210.95 68.64 210.353 68.64C209.868 68.64 209.471 68.5653 209.163 68.416V66.75C209.378 66.8433 209.602 66.89 209.835 66.89C210.003 66.89 210.157 66.806 210.297 66.638C210.437 66.47 210.568 66.1667 210.689 65.728C210.82 65.2893 210.936 64.678 211.039 63.894C211.142 63.1007 211.235 62.088 211.319 60.856H217.101V68.5ZM226.322 64.664C226.322 65.9333 225.986 66.9133 225.314 67.604C224.652 68.2947 223.746 68.64 222.598 68.64C221.889 68.64 221.254 68.486 220.694 68.178C220.144 67.87 219.71 67.422 219.392 66.834C219.075 66.2367 218.916 65.5133 218.916 64.664C218.916 63.3947 219.248 62.4193 219.91 61.738C220.573 61.0567 221.483 60.716 222.64 60.716C223.359 60.716 223.994 60.87 224.544 61.178C225.095 61.486 225.529 61.934 225.846 62.522C226.164 63.1007 226.322 63.8147 226.322 64.664ZM221.044 64.664C221.044 65.42 221.166 65.994 221.408 66.386C221.66 66.7687 222.066 66.96 222.626 66.96C223.177 66.96 223.574 66.7687 223.816 66.386C224.068 65.994 224.194 65.42 224.194 64.664C224.194 63.908 224.068 63.3433 223.816 62.97C223.574 62.5873 223.172 62.396 222.612 62.396C222.062 62.396 221.66 62.5873 221.408 62.97C221.166 63.3433 221.044 63.908 221.044 64.664ZM234.922 62.858C234.922 63.2687 234.792 63.6187 234.53 63.908C234.278 64.1973 233.9 64.384 233.396 64.468V64.524C233.928 64.5893 234.353 64.7713 234.67 65.07C234.997 65.3687 235.16 65.7513 235.16 66.218C235.16 66.6567 235.044 67.0487 234.81 67.394C234.586 67.7393 234.227 68.01 233.732 68.206C233.238 68.402 232.589 68.5 231.786 68.5H228.146V60.856H231.786C232.384 60.856 232.916 60.9213 233.382 61.052C233.858 61.1733 234.232 61.3787 234.502 61.668C234.782 61.9573 234.922 62.354 234.922 62.858ZM232.808 63.026C232.808 62.5593 232.44 62.326 231.702 62.326H230.232V63.838H231.464C231.903 63.838 232.234 63.7773 232.458 63.656C232.692 63.5253 232.808 63.3153 232.808 63.026ZM233.004 66.106C233.004 65.8073 232.888 65.5927 232.654 65.462C232.421 65.322 232.071 65.252 231.604 65.252H230.232V67.058H231.646C232.038 67.058 232.36 66.988 232.612 66.848C232.874 66.6987 233.004 66.4513 233.004 66.106ZM240.187 60.702C241.214 60.702 241.998 60.926 242.539 61.374C243.09 61.8127 243.365 62.4893 243.365 63.404V68.5H241.909L241.503 67.464H241.447C241.12 67.8747 240.775 68.1733 240.411 68.36C240.047 68.5467 239.548 68.64 238.913 68.64C238.232 68.64 237.667 68.444 237.219 68.052C236.771 67.6507 236.547 67.0393 236.547 66.218C236.547 65.406 236.832 64.8087 237.401 64.426C237.97 64.034 238.824 63.8193 239.963 63.782L241.293 63.74V63.404C241.293 63.0027 241.186 62.7087 240.971 62.522C240.766 62.3353 240.476 62.242 240.103 62.242C239.73 62.242 239.366 62.298 239.011 62.41C238.656 62.5127 238.302 62.6433 237.947 62.802L237.261 61.388C237.672 61.1733 238.124 61.0053 238.619 60.884C239.123 60.7627 239.646 60.702 240.187 60.702ZM240.481 64.986C239.809 65.0047 239.342 65.126 239.081 65.35C238.82 65.574 238.689 65.868 238.689 66.232C238.689 66.5493 238.782 66.778 238.969 66.918C239.156 67.0487 239.398 67.114 239.697 67.114C240.145 67.114 240.523 66.9833 240.831 66.722C241.139 66.4513 241.293 66.0733 241.293 65.588V64.958L240.481 64.986Z" fill="#171725"/>
<path d="M257.2 68.64C256.537 68.64 255.945 68.5047 255.422 68.234C254.909 67.9633 254.503 67.5433 254.204 66.974C253.915 66.4047 253.77 65.6767 253.77 64.79C253.77 63.866 253.924 63.1147 254.232 62.536C254.54 61.9573 254.955 61.5327 255.478 61.262C256.01 60.9913 256.612 60.856 257.284 60.856C257.667 60.856 258.035 60.898 258.39 60.982C258.745 61.0567 259.034 61.15 259.258 61.262L258.88 62.284C258.656 62.2 258.395 62.1207 258.096 62.046C257.797 61.9713 257.517 61.934 257.256 61.934C255.781 61.934 255.044 62.8813 255.044 64.776C255.044 65.6813 255.221 66.3767 255.576 66.862C255.94 67.338 256.477 67.576 257.186 67.576C257.597 67.576 257.956 67.534 258.264 67.45C258.581 67.366 258.871 67.2633 259.132 67.142V68.234C258.88 68.3647 258.6 68.4627 258.292 68.528C257.993 68.6027 257.629 68.64 257.2 68.64ZM267.541 64.734C267.541 65.9753 267.223 66.9367 266.589 67.618C265.963 68.2993 265.114 68.64 264.041 68.64C263.378 68.64 262.785 68.4907 262.263 68.192C261.749 67.884 261.343 67.4407 261.045 66.862C260.746 66.274 260.597 65.5647 260.597 64.734C260.597 63.4927 260.909 62.536 261.535 61.864C262.16 61.192 263.009 60.856 264.083 60.856C264.764 60.856 265.361 61.01 265.875 61.318C266.397 61.6167 266.803 62.0553 267.093 62.634C267.391 63.2033 267.541 63.9033 267.541 64.734ZM261.871 64.734C261.871 65.6207 262.043 66.3253 262.389 66.848C262.743 67.3613 263.303 67.618 264.069 67.618C264.825 67.618 265.38 67.3613 265.735 66.848C266.089 66.3253 266.267 65.6207 266.267 64.734C266.267 63.8473 266.089 63.152 265.735 62.648C265.38 62.144 264.82 61.892 264.055 61.892C263.289 61.892 262.734 62.144 262.389 62.648C262.043 63.152 261.871 63.8473 261.871 64.734ZM271.567 60.856C272.426 60.856 273.107 61.0287 273.611 61.374C274.124 61.71 274.381 62.1953 274.381 62.83C274.381 63.2873 274.255 63.6513 274.003 63.922C273.751 64.1833 273.406 64.3747 272.967 64.496V64.552C273.266 64.636 273.541 64.7527 273.793 64.902C274.045 65.0513 274.246 65.2473 274.395 65.49C274.554 65.7327 274.633 66.0453 274.633 66.428C274.633 67.0533 274.372 67.5807 273.849 68.01C273.336 68.43 272.528 68.64 271.427 68.64C270.886 68.64 270.396 68.5933 269.957 68.5C269.518 68.416 269.154 68.2993 268.865 68.15V67.044C269.182 67.1933 269.556 67.3287 269.985 67.45C270.424 67.5713 270.9 67.632 271.413 67.632C271.973 67.632 272.444 67.5387 272.827 67.352C273.219 67.156 273.415 66.8247 273.415 66.358C273.415 65.518 272.701 65.098 271.273 65.098H270.265V64.09H271.077C271.721 64.09 272.234 64.006 272.617 63.838C273.009 63.6607 273.205 63.362 273.205 62.942C273.205 62.5873 273.056 62.3213 272.757 62.144C272.468 61.9667 272.048 61.878 271.497 61.878C271.086 61.878 270.722 61.92 270.405 62.004C270.097 62.0787 269.756 62.1953 269.383 62.354L268.949 61.374C269.733 61.0287 270.606 60.856 271.567 60.856ZM282.128 60.996V67.464H283.22V71.104H282.03V68.5H276.808V71.104H275.632V67.464H276.234C276.878 66.5773 277.359 65.5693 277.676 64.44C278.003 63.3013 278.171 62.1533 278.18 60.996H282.128ZM279.272 61.962C279.235 62.5967 279.137 63.2547 278.978 63.936C278.82 64.608 278.614 65.252 278.362 65.868C278.12 66.484 277.835 67.016 277.508 67.464H280.938V61.962H279.272ZM287.633 60.87C288.548 60.87 289.225 61.0707 289.663 61.472C290.102 61.8733 290.321 62.5127 290.321 63.39V68.5H289.425L289.187 67.436H289.131C288.805 67.8467 288.459 68.15 288.095 68.346C287.741 68.542 287.246 68.64 286.611 68.64C285.93 68.64 285.365 68.4627 284.917 68.108C284.469 67.744 284.245 67.1793 284.245 66.414C284.245 65.6673 284.539 65.0933 285.127 64.692C285.715 64.2813 286.621 64.0573 287.843 64.02L289.117 63.978V63.53C289.117 62.9047 288.982 62.4707 288.711 62.228C288.441 61.9853 288.058 61.864 287.563 61.864C287.171 61.864 286.798 61.9247 286.443 62.046C286.089 62.158 285.757 62.2887 285.449 62.438L285.071 61.514C285.398 61.3367 285.785 61.1873 286.233 61.066C286.681 60.9353 287.148 60.87 287.633 60.87ZM287.997 64.874C287.064 64.9113 286.415 65.0607 286.051 65.322C285.697 65.5833 285.519 65.952 285.519 66.428C285.519 66.848 285.645 67.156 285.897 67.352C286.159 67.548 286.49 67.646 286.891 67.646C287.526 67.646 288.053 67.4733 288.473 67.128C288.893 66.7733 289.103 66.232 289.103 65.504V64.832L287.997 64.874ZM298.451 68.5H297.205V62.018H294.993C294.871 63.5953 294.703 64.8693 294.489 65.84C294.274 66.8013 293.989 67.5013 293.635 67.94C293.28 68.3787 292.832 68.598 292.291 68.598C292.169 68.598 292.048 68.5887 291.927 68.57C291.815 68.5607 291.721 68.5373 291.647 68.5V67.576C291.703 67.5947 291.763 67.6087 291.829 67.618C291.894 67.6273 291.959 67.632 292.025 67.632C292.529 67.632 292.93 67.0953 293.229 66.022C293.537 64.9487 293.77 63.2733 293.929 60.996H298.451V68.5ZM303.775 60.87C304.689 60.87 305.366 61.0707 305.805 61.472C306.243 61.8733 306.463 62.5127 306.463 63.39V68.5H305.567L305.329 67.436H305.273C304.946 67.8467 304.601 68.15 304.237 68.346C303.882 68.542 303.387 68.64 302.753 68.64C302.071 68.64 301.507 68.4627 301.059 68.108C300.611 67.744 300.387 67.1793 300.387 66.414C300.387 65.6673 300.681 65.0933 301.269 64.692C301.857 64.2813 302.762 64.0573 303.985 64.02L305.259 63.978V63.53C305.259 62.9047 305.123 62.4707 304.853 62.228C304.582 61.9853 304.199 61.864 303.705 61.864C303.313 61.864 302.939 61.9247 302.585 62.046C302.23 62.158 301.899 62.2887 301.591 62.438L301.213 61.514C301.539 61.3367 301.927 61.1873 302.375 61.066C302.823 60.9353 303.289 60.87 303.775 60.87ZM304.139 64.874C303.205 64.9113 302.557 65.0607 302.193 65.322C301.838 65.5833 301.661 65.952 301.661 66.428C301.661 66.848 301.787 67.156 302.039 67.352C302.3 67.548 302.631 67.646 303.033 67.646C303.667 67.646 304.195 67.4733 304.615 67.128C305.035 66.7733 305.245 66.232 305.245 65.504V64.832L304.139 64.874ZM315.151 60.856C316.01 60.856 316.691 61.0287 317.195 61.374C317.709 61.71 317.965 62.1953 317.965 62.83C317.965 63.2873 317.839 63.6513 317.587 63.922C317.335 64.1833 316.99 64.3747 316.551 64.496V64.552C316.85 64.636 317.125 64.7527 317.377 64.902C317.629 65.0513 317.83 65.2473 317.979 65.49C318.138 65.7327 318.217 66.0453 318.217 66.428C318.217 67.0533 317.956 67.5807 317.433 68.01C316.92 68.43 316.113 68.64 315.011 68.64C314.47 68.64 313.98 68.5933 313.541 68.5C313.103 68.416 312.739 68.2993 312.449 68.15V67.044C312.767 67.1933 313.14 67.3287 313.569 67.45C314.008 67.5713 314.484 67.632 314.997 67.632C315.557 67.632 316.029 67.5387 316.411 67.352C316.803 67.156 316.999 66.8247 316.999 66.358C316.999 65.518 316.285 65.098 314.857 65.098H313.849V64.09H314.661C315.305 64.09 315.819 64.006 316.201 63.838C316.593 63.6607 316.789 63.362 316.789 62.942C316.789 62.5873 316.64 62.3213 316.341 62.144C316.052 61.9667 315.632 61.878 315.081 61.878C314.671 61.878 314.307 61.92 313.989 62.004C313.681 62.0787 313.341 62.1953 312.967 62.354L312.533 61.374C313.317 61.0287 314.19 60.856 315.151 60.856ZM322.983 60.87C323.897 60.87 324.574 61.0707 325.013 61.472C325.451 61.8733 325.671 62.5127 325.671 63.39V68.5H324.775L324.537 67.436H324.481C324.154 67.8467 323.809 68.15 323.445 68.346C323.09 68.542 322.595 68.64 321.961 68.64C321.279 68.64 320.715 68.4627 320.267 68.108C319.819 67.744 319.595 67.1793 319.595 66.414C319.595 65.6673 319.889 65.0933 320.477 64.692C321.065 64.2813 321.97 64.0573 323.193 64.02L324.467 63.978V63.53C324.467 62.9047 324.331 62.4707 324.061 62.228C323.79 61.9853 323.407 61.864 322.913 61.864C322.521 61.864 322.147 61.9247 321.793 62.046C321.438 62.158 321.107 62.2887 320.799 62.438L320.421 61.514C320.747 61.3367 321.135 61.1873 321.583 61.066C322.031 60.9353 322.497 60.87 322.983 60.87ZM323.347 64.874C322.413 64.9113 321.765 65.0607 321.401 65.322C321.046 65.5833 320.869 65.952 320.869 66.428C320.869 66.848 320.995 67.156 321.247 67.352C321.508 67.548 321.839 67.646 322.241 67.646C322.875 67.646 323.403 67.4733 323.823 67.128C324.243 66.7733 324.453 66.232 324.453 65.504V64.832L323.347 64.874ZM333.66 60.996V67.464H334.752V71.104H333.562V68.5H328.34V71.104H327.164V67.464H327.766C328.41 66.5773 328.891 65.5693 329.208 64.44C329.535 63.3013 329.703 62.1533 329.712 60.996H333.66ZM330.804 61.962C330.767 62.5967 330.669 63.2547 330.51 63.936C330.352 64.608 330.146 65.252 329.894 65.868C329.652 66.484 329.367 67.016 329.04 67.464H332.47V61.962H330.804ZM339.165 60.87C340.08 60.87 340.757 61.0707 341.195 61.472C341.634 61.8733 341.853 62.5127 341.853 63.39V68.5H340.957L340.719 67.436H340.663C340.337 67.8467 339.991 68.15 339.627 68.346C339.273 68.542 338.778 68.64 338.143 68.64C337.462 68.64 336.897 68.4627 336.449 68.108C336.001 67.744 335.777 67.1793 335.777 66.414C335.777 65.6673 336.071 65.0933 336.659 64.692C337.247 64.2813 338.153 64.0573 339.375 64.02L340.649 63.978V63.53C340.649 62.9047 340.514 62.4707 340.243 62.228C339.973 61.9853 339.59 61.864 339.095 61.864C338.703 61.864 338.33 61.9247 337.975 62.046C337.621 62.158 337.289 62.2887 336.981 62.438L336.603 61.514C336.93 61.3367 337.317 61.1873 337.765 61.066C338.213 60.9353 338.68 60.87 339.165 60.87ZM339.529 64.874C338.596 64.9113 337.947 65.0607 337.583 65.322C337.229 65.5833 337.051 65.952 337.051 66.428C337.051 66.848 337.177 67.156 337.429 67.352C337.691 67.548 338.022 67.646 338.423 67.646C339.058 67.646 339.585 67.4733 340.005 67.128C340.425 66.7733 340.635 66.232 340.635 65.504V64.832L339.529 64.874ZM345.349 63.726C345.349 64.5847 345.83 65.014 346.791 65.014C347.258 65.014 347.682 64.944 348.065 64.804C348.448 64.6547 348.84 64.4587 349.241 64.216V60.996H350.473V68.5H349.241V65.154C348.821 65.4247 348.406 65.6393 347.995 65.798C347.594 65.9473 347.108 66.022 346.539 66.022C345.774 66.022 345.176 65.8213 344.747 65.42C344.327 65.0187 344.117 64.482 344.117 63.81V60.996H345.349V63.726ZM351.781 60.996H353.097L354.721 65.266C354.861 65.6393 354.987 65.9987 355.099 66.344C355.211 66.68 355.295 67.002 355.351 67.31H355.407C355.463 67.0767 355.551 66.7733 355.673 66.4C355.794 66.0173 355.92 65.6347 356.051 65.252L357.577 60.996H358.907L355.673 69.536C355.411 70.2453 355.071 70.81 354.651 71.23C354.24 71.65 353.671 71.86 352.943 71.86C352.719 71.86 352.523 71.846 352.355 71.818C352.187 71.7993 352.042 71.776 351.921 71.748V70.768C352.023 70.7867 352.145 70.8053 352.285 70.824C352.434 70.8427 352.588 70.852 352.747 70.852C353.176 70.852 353.521 70.7307 353.783 70.488C354.053 70.2453 354.263 69.9233 354.413 69.522L354.805 68.528L351.781 60.996Z" fill="#171725"/>
<path d="M566.199 59.2727H565.261C565.206 59.3622 564.58 60.5682 563.233 60.5682V61.4545C564.234 61.4545 564.95 61.0455 565.074 60.8068H565.142V68H566.199V59.2727ZM568.7 68H574.206V67.0625H570.149V66.9943L572.109 64.8977C573.609 63.2912 574.053 62.5412 574.053 61.5739C574.053 60.2273 572.962 59.1534 571.428 59.1534C569.898 59.1534 568.734 60.1932 568.734 61.7273H569.74C569.74 60.7344 570.384 60.0739 571.393 60.0739C572.339 60.0739 573.064 60.6534 573.064 61.5739C573.064 62.3793 572.591 62.9759 571.581 64.0795L568.7 67.233V68ZM583.295 68H584.25V61.4545H581.557C580.146 61.4545 579.29 62.1918 579.29 63.3977C579.29 64.2969 579.741 64.9361 580.53 65.2045L578.932 68H580.023L581.54 65.3409H583.295V68ZM583.295 64.4034H581.438C580.726 64.4034 580.295 64.0241 580.295 63.3977C580.295 62.7628 580.773 62.375 581.557 62.375H583.295V64.4034ZM587.102 61.4545H586.096V68H587.102V65.2045H590.238V68H591.244V61.4545H590.238V64.267H587.102V61.4545ZM593.081 68H596.166C597.495 68 598.297 67.25 598.297 66.2443C598.297 65.2173 597.517 64.6634 596.797 64.5568C597.534 64.4034 598.058 63.9901 598.058 63.1932C598.058 62.1491 597.163 61.4545 595.757 61.4545H593.081V68ZM594.035 67.0795V65.0682H596.166C596.856 65.0682 597.274 65.4815 597.274 66.1591C597.274 66.7301 596.856 67.0795 596.166 67.0795H594.035ZM594.035 64.1989V62.375H595.757C596.562 62.375 597.052 62.7116 597.052 63.2614C597.052 63.8452 596.562 64.1989 595.757 64.1989H594.035ZM603.177 68H608.683V67.0625H604.626V66.9943L606.586 64.8977C608.086 63.2912 608.529 62.5412 608.529 61.5739C608.529 60.2273 607.438 59.1534 605.904 59.1534C604.374 59.1534 603.211 60.1932 603.211 61.7273H604.217C604.217 60.7344 604.86 60.0739 605.87 60.0739C606.816 60.0739 607.54 60.6534 607.54 61.5739C607.54 62.3793 607.067 62.9759 606.058 64.0795L603.177 67.233V68ZM613.289 68.1193C615.215 68.1193 616.323 66.4872 616.323 63.6364C616.323 60.8068 615.198 59.1534 613.289 59.1534C611.38 59.1534 610.255 60.8068 610.255 63.6364C610.255 66.4872 611.363 68.1193 613.289 68.1193ZM613.289 67.1818C612.019 67.1818 611.278 65.9077 611.278 63.6364C611.278 61.3693 612.028 60.0739 613.289 60.0739C614.55 60.0739 615.3 61.3693 615.3 63.6364C615.3 65.9077 614.559 67.1818 613.289 67.1818ZM617.942 68H623.448V67.0625H619.391V66.9943L621.352 64.8977C622.852 63.2912 623.295 62.5412 623.295 61.5739C623.295 60.2273 622.204 59.1534 620.67 59.1534C619.14 59.1534 617.977 60.1932 617.977 61.7273H618.982C618.982 60.7344 619.626 60.0739 620.636 60.0739C621.582 60.0739 622.306 60.6534 622.306 61.5739C622.306 62.3793 621.833 62.9759 620.823 64.0795L617.942 67.233V68ZM628.055 68.1193C629.981 68.1193 631.089 66.4872 631.089 63.6364C631.089 60.8068 629.964 59.1534 628.055 59.1534C626.146 59.1534 625.021 60.8068 625.021 63.6364C625.021 66.4872 626.129 68.1193 628.055 68.1193ZM628.055 67.1818C626.785 67.1818 626.043 65.9077 626.043 63.6364C626.043 61.3693 626.793 60.0739 628.055 60.0739C629.316 60.0739 630.066 61.3693 630.066 63.6364C630.066 65.9077 629.325 67.1818 628.055 67.1818Z" fill="#696974"/>
<path fill-rule="evenodd" clip-rule="evenodd" d="M647.5 64C647.5 62.8954 646.605 62 645.5 62C644.395 62 643.5 62.8954 643.5 64C643.5 65.1046 644.395 66 645.5 66C646.605 66 647.5 65.1046 647.5 64ZM654.5 64C654.5 62.8954 653.605 62 652.5 62C651.395 62 650.5 62.8954 650.5 64C650.5 65.1046 651.395 66 652.5 66C653.605 66 654.5 65.1046 654.5 64ZM659.5 62C660.605 62 661.5 62.8954 661.5 64C661.5 65.1046 660.605 66 659.5 66C658.395 66 657.5 65.1046 657.5 64C657.5 62.8954 658.395 62 659.5 62Z" fill="#92929D"/>
</svg>
