<svg width="19" height="20" viewBox="0 0 19 20" fill="none" xmlns="http://www.w3.org/2000/svg">
<path fill-rule="evenodd" clip-rule="evenodd" d="M15.065 5.4L13.7 3.76205V5.4H15.065ZM18.2 6.72584V16.3C18.2 18.3435 16.5435 20 14.5 20H3.7C1.65655 20 0 18.3435 0 16.3V3.7C0 1.65655 1.65655 0 3.7 0H12.2785C12.8423 0 13.3771 0.250464 13.7381 0.68365L17.7596 5.50949C18.0442 5.85095 18.2 6.28137 18.2 6.72584ZM16.2 7.4H13.6C12.5507 7.4 11.7 6.54934 11.7 5.5V2H3.7C2.76112 2 2 2.76112 2 3.7V16.3C2 17.2389 2.76112 18 3.7 18H14.5C15.4389 18 16.2 17.2389 16.2 16.3V7.4ZM4.10286 13.6H14.0971C14.2644 13.6 14.4 13.7194 14.4 13.8667V15.3333C14.4 15.4806 14.2644 15.6 14.0971 15.6H4.10286C3.93559 15.6 3.8 15.4806 3.8 15.3333V13.8667C3.8 13.7194 3.93559 13.6 4.10286 13.6Z" fill="#50B5FF"/>
</svg>
