<svg width="21" height="20" viewBox="0 0 21 20" fill="none" xmlns="http://www.w3.org/2000/svg">
<path fill-rule="evenodd" clip-rule="evenodd" d="M3.40926 5.83335H16.7426C17.2028 5.83335 17.5759 5.46026 17.5759 5.00002C17.5759 4.53978 17.2028 4.16669 16.7426 4.16669H3.40926C2.94902 4.16669 2.57593 4.53978 2.57593 5.00002C2.57593 5.46026 2.94902 5.83335 3.40926 5.83335ZM7.57593 15.8334H12.5759C13.0362 15.8334 13.4093 15.4603 13.4093 15C13.4093 14.5398 13.0362 14.1667 12.5759 14.1667H7.57593C7.11569 14.1667 6.74259 14.5398 6.74259 15C6.74259 15.4603 7.11569 15.8334 7.57593 15.8334ZM14.2426 10.8334H5.90926C5.44902 10.8334 5.07593 10.4603 5.07593 10C5.07593 9.53978 5.44902 9.16669 5.90926 9.16669H14.2426C14.7028 9.16669 15.0759 9.53978 15.0759 10C15.0759 10.4603 14.7028 10.8334 14.2426 10.8334Z" fill="#92929D"/>
</svg>
