<svg width="24" height="24" viewBox="0 0 24 24" fill="none" xmlns="http://www.w3.org/2000/svg">
<path fill-rule="evenodd" clip-rule="evenodd" d="M11.1429 2.85714C11.1429 2.38376 11.5266 2 12 2C12.4734 2 12.8571 2.38376 12.8571 2.85714V5.14286C12.8571 5.61624 12.4734 6 12 6C11.5266 6 11.1429 5.61624 11.1429 5.14286V2.85714ZM12 16C12.9468 16 13.7143 15.2325 13.7143 14.2857C13.7143 13.3389 12.9468 12.5714 12 12.5714C11.0532 12.5714 10.2857 13.3389 10.2857 14.2857C10.2857 15.2325 11.0532 16 12 16ZM21.7489 3.39391C21.4142 3.05917 20.8715 3.05917 20.5368 3.39391L18.2511 5.67962C17.9163 6.01436 17.9163 6.55707 18.2511 6.89181C18.5858 7.22654 19.1285 7.22654 19.4632 6.89181L21.7489 4.60609C22.0837 4.27136 22.0837 3.72864 21.7489 3.39391ZM3.46323 3.39391L5.74895 5.67962C6.08368 6.01436 6.08368 6.55707 5.74895 6.89181C5.41421 7.22654 4.8715 7.22654 4.53677 6.89181L2.25105 4.60609C1.91632 4.27136 1.91632 3.72864 2.25105 3.39391C2.58579 3.05917 3.1285 3.05917 3.46323 3.39391ZM2.32924 14.067C4.14093 9.69495 7.84874 6.85714 12 6.85714C16.1513 6.85714 19.8591 9.69495 21.6708 14.067C21.7288 14.207 21.7288 14.3644 21.6708 14.5045C19.8591 18.8765 16.1513 21.7143 12 21.7143C7.84874 21.7143 4.14093 18.8765 2.32924 14.5045C2.2712 14.3644 2.2712 14.207 2.32924 14.067ZM12 17.1429C10.422 17.1429 9.14286 15.8637 9.14286 14.2857C9.14286 12.7078 10.422 11.4286 12 11.4286C13.578 11.4286 14.8571 12.7078 14.8571 14.2857C14.8571 15.8637 13.578 17.1429 12 17.1429Z" fill="#92929D"/>
</svg>
