<svg width="1006" height="639" xmlns="http://www.w3.org/2000/svg" preserveAspectRatio="xMidYMid meet">

 <g>
  <title>background</title>
  <rect fill="none" id="canvas_background" height="641" width="1008" y="-1" x="-1"/>
 </g>
 <g>
  <title>Layer 1</title>
  <g id="svg_1" transform="translate(0,1000) scale(0.10000000149011612,-0.10000000149011612) ">
   <path id="svg_2" d="m5538.943619,8683.365967c-16,-46 -22,-52 -68,-69c-54,-20 -54,-23 6,-42c32,-10 42,-20 61,-64l23,-51l11,28c6,15 15,37 20,50c6,15 24,28 51,37c22,7 43,16 45,20c2,4 -18,14 -46,24c-27,10 -49,23 -50,30c0,6 -8,28 -17,49l-17,39l-19,-51z"/>
   <path id="svg_3" d="m2183.943619,8486.365967c-71,-19 -110,-44 -166,-106c-147,-164 -89,-431 115,-527c46,-22 69,-26 140,-26c76,0 93,3 152,33c75,37 123,88 160,168c35,76 33,199 -5,276c-40,82 -120,152 -204,178c-76,23 -117,24 -192,4zm197,-30c34,-15 35,-17 18,-27c-97,-60 -146,-128 -146,-204c0,-23 -3,-43 -7,-43c-5,0 -22,9 -39,19c-46,28 -74,93 -74,175c0,66 0,67 33,81c44,20 168,19 215,-1zm-252,-191c15,-42 76,-103 101,-103c24,0 13,-19 -19,-36c-47,-25 -141,-16 -201,19c-41,24 -47,32 -47,61c0,46 54,148 98,187l37,33l7,-60c4,-32 15,-78 24,-101zm373,112c45,-49 73,-106 85,-169l7,-39l-34,20c-83,49 -184,59 -241,24c-43,-27 -46,-27 -46,9c0,64 59,143 135,183c43,23 48,22 94,-28zm22,-197c62,-32 64,-34 61,-68c-6,-59 -41,-124 -93,-176l-49,-48l0,45c0,97 -49,194 -109,219c-39,16 -39,24 2,44c53,26 115,20 188,-16zm-418,-94c42,-7 120,11 138,32c43,51 37,-66 -6,-122c-30,-40 -109,-94 -136,-94c-44,0 -139,147 -139,216l0,23l53,-24c28,-13 69,-27 90,-31zm233,36c41,-26 72,-89 80,-166c5,-48 3,-63 -10,-76c-22,-22 -120,-42 -170,-34c-53,8 -106,26 -105,34c0,4 21,21 46,37c75,48 106,95 111,165c2,33 7,60 10,60c2,0 19,-9 38,-20z"/>
   <path id="svg_4" d="m7207.943619,8176.365967c-264,-40 -483,-74 -486,-74c-6,0 -53,-100 -61,-127c-2,-6 55,-75 125,-152l128,-141l-27,-85l-27,-86l17,-107c10,-59 20,-157 23,-218l6,-111l162,-81l162,-80l135,80l134,81l70,114c65,108 75,119 158,180l89,66l80,-12c43,-7 82,-10 85,-7c7,7 -97,701 -110,736c-22,58 -87,101 -150,99c-18,0 -249,-34 -513,-75zm737,-626c8,-57 14,-105 12,-107c-2,-2 -35,1 -74,8l-71,11l-97,-73c-90,-69 -102,-82 -165,-185l-68,-111l-127,-77l-127,-76l-146,73c-165,81 -158,74 -160,193c0,33 -8,113 -18,176c-10,63 -17,116 -16,117c3,5 971,151 1006,152l36,1l15,-102z"/>
   <path id="svg_5" d="m2315.472847,7776.249054c-20,-11 -46,-38 -58,-58l-21,-38l0,-1106c0,-625 4,-1106 9,-1106c5,0 69,25 142,56c96,39 202,72 373,115l238,60l197,-19l196,-18l90,32c50,18 97,34 105,36c12,2 17,-21 26,-118l12,-121l58,-87l58,-87l-12,-97l-11,-97l43,-70c24,-38 61,-98 82,-132l39,-63l265,-2l265,-3l7,-60c27,-249 253,-445 513,-445c260,0 486,196 513,445l7,60l243,3c133,1 242,3 242,5c0,1 16,93 34,205c24,140 40,209 53,225c88,112 139,157 241,216l108,61l169,0l170,0l113,101l112,100l172,28c161,26 173,30 196,57c112,131 151,163 272,224l120,60l-2,407l-3,407l-80,25l-79,25l-104,-55c-98,-51 -109,-60 -193,-159l-89,-105l-134,-54l-135,-54l-63,44c-35,24 -96,67 -136,94l-73,50l5,55c3,30 9,129 12,220l7,165l38,76l38,76l-105,156c-57,86 -104,159 -104,162c0,3 16,29 35,58c19,28 35,55 35,59c0,5 -948,8 -2107,8l-2108,0l-36,-22zm1678,-5c-2,-5 -39,-70 -82,-146l-78,-139l12,-111c7,-62 15,-124 18,-139c4,-20 1,-28 -9,-28c-11,0 -19,32 -32,141l-17,140l81,145c47,82 88,144 97,144c8,0 12,-3 10,-7zm673,-75c45,-75 46,-77 141,-124l96,-47l112,28l111,27l94,-86l93,-86l129,-20l128,-21l140,22c138,21 142,22 302,102l162,81l239,-94c206,-80 273,-113 260,-127c-2,-2 -111,40 -243,92c-131,52 -244,95 -250,95c-7,0 -83,-35 -170,-77c-157,-77 -161,-78 -302,-99c-125,-18 -152,-19 -215,-9c-40,7 -92,15 -116,19c-50,8 -49,14 -7,-96c19,-51 22,-68 12,-68c-7,0 -28,37 -47,88c-29,77 -41,94 -99,149c-36,34 -78,72 -93,83l-28,22l-110,-26l-109,-26l-103,52l-102,53l-47,80c-26,44 -48,84 -48,88c0,24 30,-8 70,-75zm-2015,-113c39,-19 59,-54 58,-101c-1,-40 -25,-71 -68,-89c-86,-37 -174,60 -131,144c17,32 58,60 89,61c11,0 34,-7 52,-15zm358,-25c33,-37 35,-81 7,-127c-51,-85 -190,-44 -190,56c0,100 116,145 183,71zm296,25c16,-8 36,-30 45,-48c49,-104 -81,-201 -164,-122c-15,15 -31,38 -35,52c-9,39 13,92 49,114c37,23 67,24 105,4zm504,-436c-10,-16 -34,-51 -53,-77l-35,-46l-188,-36l-188,-36l-98,-76l-98,-76l-23,-116c-13,-64 -26,-120 -29,-124c-9,-12 -299,-122 -323,-122c-18,0 -58,9 -178,40c-32,9 -40,18 -75,90l-39,81l-113,60l-113,60l0,204l0,205l786,0l785,0l-18,-31zm1536,18c-9,-7 -39,-33 -68,-59c-50,-45 -54,-52 -80,-150l-28,-103l55,-110l54,-110l-40,-87l-40,-87l-109,30c-59,16 -124,34 -143,39c-19,6 -77,46 -129,89l-95,79l-134,27c-74,14 -141,24 -149,20c-9,-3 -66,-37 -128,-75c-110,-69 -112,-70 -261,-100l-149,-30l-116,-79l-115,-80l-270,86c-148,47 -271,87 -273,89c-2,1 7,55 20,119l24,117l95,71l95,72l189,35l188,35l61,88l60,87l751,0c592,-1 748,-3 735,-13zm1249,-183c-3,-107 -9,-198 -12,-201c-4,-4 -73,5 -154,20c-81,15 -155,27 -164,27c-9,0 -99,-23 -200,-50l-183,-51l-161,12l-161,12l-104,-41c-57,-22 -116,-45 -132,-51c-27,-10 -27,-10 -78,91l-51,101l23,91l22,91l76,73l76,72l604,0l604,0l-5,-196zm1027,-34l50,-17l3,-389l2,-390l-112,-54c-104,-50 -121,-62 -213,-156l-100,-101l-148,-23c-82,-12 -150,-20 -151,-18c-2,1 6,66 16,143l20,140l-66,123l-67,123l15,110c8,61 16,112 18,113c1,2 64,28 138,58l135,54l88,104c80,95 95,108 185,156c64,35 104,51 117,47c11,-3 43,-14 70,-23zm-1213,-165c73,-14 145,-30 160,-35c44,-14 288,-191 288,-209c0,-9 -5,-61 -12,-117l-11,-101l66,-123l67,-123l-22,-143l-21,-144l-113,-100l-113,-100l-169,0l-170,0l-99,-56c-78,-44 -115,-73 -183,-146l-85,-90l-72,57c-62,49 -75,65 -89,109c-9,28 -20,56 -25,62c-5,6 -63,19 -129,29l-121,19l-64,79c-54,69 -75,86 -142,121l-78,41l-3,117l-3,117l45,89l45,90l-64,103c-36,57 -65,110 -65,117c0,7 16,50 36,96l36,82l136,52l137,52l160,-11l160,-11l180,50c99,28 186,51 192,51c7,1 73,-10 145,-24zm-4047,-97l100,-53l40,-77c22,-42 43,-79 46,-83c4,-3 57,-20 118,-36l112,-30l159,60c88,34 167,61 176,61c14,0 224,-64 474,-146l76,-24l29,-204l29,-203l-60,-94l-60,-94l-104,-38l-105,-39l-200,17l-200,17l-243,-61c-164,-41 -283,-78 -363,-111c-65,-28 -121,-50 -124,-50c-3,0 -5,279 -5,620c0,341 1,620 3,620c1,0 47,-24 102,-52zm2235,11l115,-23l96,-80l97,-81l126,-33c70,-18 137,-37 149,-41c13,-5 49,-52 86,-111l64,-103l-45,-91l-45,-91l5,-115l4,-116l-122,-46l-123,-47l-136,50l-136,51l-146,-28l-146,-27l-44,-73l-44,-73l-135,-44c-74,-25 -178,-55 -230,-67l-95,-23l-63,-69c-35,-37 -67,-68 -72,-68c-4,0 -30,35 -59,78l-51,78l-12,125l-11,124l61,97l61,98l-30,206c-17,114 -27,209 -22,213c5,3 57,39 116,79l108,73l132,25c73,14 139,27 147,29c9,3 69,39 135,80c66,41 127,73 135,71c8,-2 67,-14 130,-27zm261,-949c74,-27 139,-50 144,-50c6,0 65,21 133,47l124,47l73,-37c62,-30 84,-49 143,-120l70,-83l69,-12c37,-7 88,-15 113,-18c58,-9 66,-15 85,-75c14,-41 29,-59 91,-110c48,-39 74,-67 74,-81c0,-18 -42,-284 -56,-350l-6,-28l-1008,0l-1008,0l-77,122l-77,121l7,80c3,44 11,90 15,103c5,12 38,53 74,91c63,67 67,70 143,87c43,10 146,40 230,67l151,50l46,73l46,73l122,22c106,19 140,26 144,30c0,1 61,-21 135,-49zm-277,-922c3,-13 7,-42 10,-65c3,-23 8,-48 11,-55c4,-11 -11,-19 -54,-31c-34,-9 -63,-17 -65,-17c-9,0 -46,131 -46,161l0,29l70,0c64,0 70,-2 74,-22zm170,0c3,-13 7,-42 9,-65c6,-47 6,-47 -79,-58c-59,-8 -61,-6 -71,87l-6,58l71,0c66,0 72,-2 76,-22zm166,-43l0,-65l-64,0c-63,0 -64,0 -70,31c-3,17 -6,47 -6,65l0,34l70,0l70,0l0,-65zm170,31c0,-18 -3,-48 -6,-65c-6,-31 -7,-31 -70,-31l-64,0l0,65l0,65l70,0l70,0l0,-34zm167,-24c-10,-93 -12,-95 -71,-87c-85,11 -85,11 -79,58c10,91 5,87 85,87l71,0l-6,-58zm173,29c0,-30 -37,-161 -46,-161c-2,0 -31,8 -65,17c-43,12 -58,20 -54,31c3,7 8,32 11,55c12,93 7,87 84,87l70,0l0,-29zm-510,-196l0,-75l-40,0l-39,0l-21,66c-11,36 -20,70 -20,75c0,5 27,9 60,9l60,0l0,-75zm150,66c0,-5 -9,-39 -20,-75l-21,-66l-39,0l-40,0l0,75l0,75l60,0c33,0 60,-4 60,-9zm-274,-71l21,-69l-43,-7c-24,-3 -50,-4 -57,-1c-11,4 -77,115 -77,130c0,6 45,13 100,15c35,2 35,2 56,-68zm432,56c7,-8 -59,-127 -73,-133c-9,-3 -35,-2 -59,1l-43,7l21,70l21,71l65,-7c35,-3 66,-8 68,-9zm-599,-38c7,-18 23,-50 37,-71l24,-37l-22,-9c-63,-23 -64,-23 -105,22c-40,43 -68,85 -61,92c3,3 98,33 110,34c3,1 11,-14 17,-31zm699,11c23,-7 42,-15 42,-19c0,-9 -51,-78 -80,-108c-22,-23 -28,-23 -88,-1l-22,9l24,37c14,21 30,53 37,71c8,23 16,31 28,28c9,-3 35,-10 59,-17zm-466,-189c20,-39 34,-70 30,-70c-12,0 -146,104 -150,117c-2,7 11,13 35,16c21,2 40,4 43,5c3,1 22,-30 42,-68zm58,8l0,-63l-30,50c-38,63 -38,75 0,75l30,0l0,-62zm90,50c0,-7 -14,-35 -30,-63l-30,-50l0,63l0,62l30,0c17,0 30,-5 30,-12zm120,-5c9,-9 -134,-123 -154,-123c-3,0 12,31 32,69l37,68l40,-5c22,-2 42,-7 45,-9zm-376,-51c28,-26 62,-55 76,-65l25,-17l-35,5c-41,7 -182,75 -187,91c-3,9 25,23 66,33c2,1 27,-20 55,-47zm462,32c14,-4 23,-11 21,-18c-5,-16 -145,-84 -187,-91l-35,-5l25,17c14,10 48,39 75,65c28,26 56,45 63,43c8,-3 25,-8 38,-11z"/>
   <path id="svg_6" d="m8308.943619,6613.365967c-15,-43 -21,-49 -68,-66l-52,-18l52,-20c46,-17 52,-24 68,-68c20,-54 25,-53 44,5c10,32 20,41 63,59l51,21l-50,22c-43,19 -52,28 -64,63c-7,23 -16,44 -20,46c-4,2 -14,-17 -24,-44z"/>
   <path id="svg_7" d="m7769.943619,5782.365967c-122,-46 -131,-51 -221,-133c-106,-95 -89,-90 -318,-103l-118,-6l-125,-90l-125,-90l-169,16l-168,17l-124,-60c-107,-51 -135,-70 -201,-135l-78,-76l-51,-193c-28,-105 -52,-199 -55,-208c-6,-20 -98,-9 840,-99c402,-39 755,-70 786,-70c43,0 65,6 90,23c65,44 65,43 125,667c30,315 52,577 48,581c-5,4 -65,-15 -136,-41zm113,-14c0,-35 -99,-1066 -106,-1097c-7,-37 -64,-89 -105,-95c-29,-5 -1618,142 -1626,150c-2,2 19,88 46,192l50,189l83,79c68,64 102,87 188,128c118,57 121,57 335,34l120,-13l125,91l125,90l171,11l171,11l100,89c92,82 108,93 199,127c54,20 105,37 112,37c6,1 12,-10 12,-23z"/>
   <path id="svg_8" d="m3349.943619,5437.365967l-98,-45l-210,0l-210,0l-232,-76c-157,-52 -274,-97 -362,-141c-71,-36 -131,-66 -133,-67c-1,-2 6,-119 17,-260c20,-282 21,-286 91,-333c24,-17 47,-23 88,-23c95,0 1497,101 1504,108c4,4 -34,63 -84,130l-91,124l6,98l5,98l-66,86l-65,87l-21,126c-12,70 -26,128 -31,130c-6,1 -54,-18 -108,-42zm117,-102l18,-118l65,-85l65,-85l-4,-101l-3,-102l83,-112c46,-62 82,-113 80,-115c-2,-1 -203,-17 -448,-34c-245,-17 -581,-41 -746,-52c-296,-21 -302,-21 -340,-3c-64,32 -73,58 -89,275c-8,107 -15,217 -15,245l0,50l138,67c92,44 211,89 362,138l225,72l191,-7l192,-6l98,45c55,24 102,45 105,45c3,0 13,-53 23,-117z"/>
   <path id="svg_9" d="m1471.943619,5228.365967c-20,-41 -32,-52 -69,-67l-45,-17l51,-22c44,-19 53,-27 63,-60c16,-54 27,-57 41,-13c17,51 23,58 70,73c22,7 40,16 40,20c0,4 -20,15 -44,24c-37,14 -47,24 -63,64l-20,47l-24,-49z"/>
   <path id="svg_10" d="m8062.943619,4375.365967c-13,-29 -27,-53 -32,-53c-5,0 -25,-7 -46,-16l-37,-16l40,-16c57,-24 60,-27 75,-71c7,-23 17,-41 21,-41c5,0 14,19 21,42c11,36 19,44 60,62c26,11 48,23 48,26c0,4 -18,12 -40,19c-43,13 -47,17 -72,76l-16,40l-22,-52z"/>
  </g>
 </g>
</svg>